<svg id="svg" xmlns="http://www.w3.org/2000/svg" xmlns:xlink="http://www.w3.org/1999/xlink" width="400" height="400" viewBox="0, 0, 400,400"><g id="svgg"><path id="path0" d="M218.506 8.533 C 218.506 8.679,218.436 8.827,218.349 8.862 C 218.263 8.896,217.946 9.363,217.645 9.900 C 217.344 10.437,216.621 11.663,216.038 12.624 C 215.456 13.586,214.813 14.669,214.610 15.031 C 214.406 15.392,213.708 16.576,213.058 17.661 C 212.407 18.746,211.731 19.887,211.555 20.197 C 210.714 21.678,209.213 24.196,208.899 24.652 C 208.706 24.932,208.549 25.204,208.549 25.256 C 208.549 25.308,208.084 26.118,207.515 27.055 C 206.947 27.992,206.482 28.792,206.482 28.833 C 206.482 28.873,206.064 29.588,205.552 30.421 C 205.041 31.254,204.267 32.591,203.832 33.394 C 203.396 34.196,202.980 34.894,202.907 34.946 C 202.834 34.998,202.583 35.420,202.349 35.885 C 202.114 36.350,201.863 36.773,201.791 36.825 C 201.720 36.876,201.462 37.320,201.220 37.811 C 200.977 38.302,200.709 38.704,200.624 38.704 C 200.539 38.704,200.470 38.802,200.470 38.922 C 200.470 39.042,199.887 40.120,199.176 41.317 C 198.464 42.515,197.238 44.578,196.451 45.902 C 195.665 47.226,195.021 48.361,195.021 48.424 C 195.021 48.486,194.905 48.671,194.764 48.834 C 194.622 48.998,194.296 49.512,194.039 49.977 C 193.781 50.442,193.305 51.270,192.981 51.817 C 192.656 52.364,192.391 52.892,192.391 52.991 C 192.391 53.090,192.323 53.171,192.240 53.171 C 192.157 53.171,191.882 53.592,191.629 54.107 C 191.376 54.622,191.106 55.045,191.029 55.046 C 190.951 55.048,190.888 55.127,190.888 55.222 C 190.888 55.317,190.439 56.141,189.890 57.054 C 188.658 59.100,186.362 62.993,185.863 63.880 C 185.660 64.241,185.101 65.182,184.621 65.970 C 184.141 66.758,183.748 67.498,183.748 67.614 C 183.748 67.730,183.683 67.825,183.603 67.825 C 183.524 67.825,183.249 68.223,182.993 68.708 C 182.737 69.194,182.316 69.934,182.057 70.352 C 181.799 70.771,181.483 71.282,181.356 71.489 C 181.229 71.696,180.898 72.309,180.621 72.851 C 180.344 73.394,180.047 73.837,179.960 73.837 C 179.874 73.837,179.803 73.928,179.803 74.039 C 179.803 74.241,178.320 76.854,178.104 77.031 C 178.042 77.083,177.943 77.252,177.885 77.407 C 177.798 77.643,174.546 83.202,172.994 85.768 C 171.521 88.206,170.597 89.836,170.597 89.998 C 170.597 90.100,170.512 90.183,170.409 90.183 C 170.305 90.183,170.221 90.258,170.221 90.350 C 170.221 90.442,169.544 91.635,168.718 93.001 C 167.891 94.368,167.215 95.515,167.215 95.552 C 167.215 95.605,165.775 98.064,164.968 99.389 C 163.919 101.111,163.081 102.611,163.081 102.767 C 163.081 102.873,163.012 102.959,162.927 102.959 C 162.842 102.959,162.574 103.361,162.331 103.852 C 162.089 104.342,161.832 104.786,161.761 104.838 C 161.690 104.890,161.426 105.312,161.176 105.777 C 160.926 106.242,160.503 106.961,160.238 107.374 C 159.972 107.788,159.694 108.316,159.620 108.549 C 159.547 108.781,159.407 108.971,159.311 108.971 C 159.215 108.971,159.133 109.077,159.131 109.206 C 159.128 109.335,158.751 110.033,158.293 110.756 C 157.835 111.480,157.312 112.367,157.131 112.729 C 156.949 113.091,156.311 114.174,155.714 115.136 C 155.116 116.098,154.627 116.930,154.627 116.986 C 154.627 117.041,154.467 117.311,154.272 117.585 C 153.965 118.017,153.386 119.010,152.664 120.338 C 152.551 120.545,152.299 120.952,152.104 121.244 C 151.908 121.535,151.614 122.019,151.449 122.319 C 150.880 123.359,149.676 125.422,148.273 127.760 C 147.498 129.051,146.721 130.362,146.545 130.672 C 146.107 131.447,144.517 134.178,144.304 134.523 C 143.186 136.335,142.414 137.705,142.414 137.879 C 142.414 137.997,142.345 138.093,142.260 138.093 C 142.175 138.093,141.907 138.495,141.664 138.985 C 141.422 139.476,141.168 139.920,141.100 139.972 C 141.033 140.023,140.772 140.446,140.521 140.911 C 140.271 141.376,140.013 141.799,139.949 141.851 C 139.885 141.902,139.604 142.367,139.325 142.884 C 138.189 144.988,137.886 145.506,137.620 145.800 C 137.467 145.969,137.341 146.242,137.341 146.406 C 137.341 146.570,137.269 146.732,137.181 146.767 C 137.024 146.828,135.463 149.310,135.463 149.498 C 135.463 149.550,134.955 150.427,134.335 151.448 C 133.715 152.468,133.208 153.390,133.208 153.495 C 133.208 153.601,133.124 153.687,133.020 153.687 C 132.917 153.687,132.832 153.773,132.832 153.878 C 132.832 153.984,132.410 154.751,131.893 155.584 C 131.376 156.417,130.953 157.162,130.953 157.238 C 130.953 157.315,130.702 157.710,130.395 158.116 C 130.088 158.522,129.834 158.914,129.831 158.987 C 129.825 159.149,127.854 162.522,127.580 162.838 C 127.472 162.963,127.384 163.108,127.384 163.160 C 127.384 163.238,124.225 168.714,123.636 169.657 C 122.495 171.485,120.808 174.390,120.808 174.527 C 120.808 174.624,120.700 174.815,120.568 174.951 C 120.324 175.205,118.365 178.426,118.365 178.575 C 118.365 178.620,118.112 179.032,117.802 179.492 C 117.492 179.951,117.238 180.410,117.238 180.512 C 117.238 180.613,117.111 180.801,116.956 180.930 C 116.801 181.059,116.674 181.323,116.674 181.517 C 116.674 181.711,116.596 181.869,116.501 181.869 C 116.339 181.869,115.999 182.429,114.561 185.063 C 114.250 185.632,113.923 186.125,113.832 186.159 C 113.742 186.194,113.668 186.377,113.668 186.566 C 113.668 186.756,113.605 186.939,113.527 186.974 C 113.378 187.040,112.422 188.549,111.643 189.948 C 111.385 190.413,110.804 191.405,110.354 192.153 C 109.904 192.900,109.535 193.598,109.535 193.703 C 109.535 193.808,109.450 193.894,109.347 193.894 C 109.244 193.894,109.159 193.980,109.159 194.085 C 109.159 194.262,107.983 196.310,107.002 197.839 C 106.770 198.201,106.252 199.075,105.850 199.782 C 105.448 200.488,104.853 201.503,104.526 202.036 C 104.200 202.570,103.746 203.344,103.519 203.758 C 103.071 204.570,100.165 209.494,97.948 213.197 C 97.191 214.461,96.571 215.548,96.571 215.612 C 96.571 215.675,96.316 216.106,96.003 216.569 C 95.691 217.031,95.265 217.720,95.055 218.099 C 94.846 218.478,94.373 219.295,94.004 219.915 C 93.247 221.186,92.807 221.943,92.228 222.969 C 92.009 223.356,91.671 223.898,91.476 224.172 C 91.282 224.446,91.123 224.710,91.123 224.758 C 91.123 224.807,90.647 225.639,90.065 226.608 C 89.484 227.577,88.960 228.497,88.901 228.652 C 88.841 228.807,88.722 229.018,88.634 229.122 C 88.388 229.413,86.464 232.613,86.093 233.349 C 85.911 233.711,85.602 234.245,85.406 234.536 C 85.210 234.828,84.916 235.306,84.751 235.600 C 84.151 236.673,83.412 237.959,83.237 238.234 C 82.716 239.053,79.662 244.296,79.662 244.371 C 79.662 244.420,79.408 244.829,79.098 245.279 C 78.788 245.730,78.535 246.138,78.535 246.185 C 78.535 246.232,77.873 247.364,77.065 248.701 C 76.256 250.037,75.538 251.251,75.469 251.399 C 75.400 251.547,75.011 252.217,74.604 252.889 C 74.197 253.560,73.618 254.533,73.318 255.049 C 72.791 255.957,71.205 258.658,70.385 260.045 C 70.165 260.416,69.402 261.726,68.688 262.957 C 67.555 264.910,66.945 265.927,65.995 267.451 C 65.867 267.657,65.548 268.206,65.287 268.671 C 65.026 269.136,64.562 269.939,64.256 270.456 C 63.950 270.972,63.518 271.733,63.295 272.147 C 63.072 272.560,62.828 272.940,62.752 272.992 C 62.676 273.044,62.391 273.509,62.118 274.025 C 61.602 275.002,61.476 275.219,60.699 276.468 C 60.442 276.881,60.080 277.494,59.895 277.830 C 59.710 278.166,59.407 278.715,59.221 279.051 C 59.036 279.387,58.655 280.019,58.376 280.457 C 58.096 280.894,57.868 281.289,57.868 281.334 C 57.868 281.380,57.445 282.099,56.928 282.932 C 56.411 283.765,55.989 284.496,55.989 284.557 C 55.989 284.617,55.749 285.020,55.457 285.452 C 55.164 285.884,54.869 286.364,54.801 286.519 C 54.733 286.674,54.342 287.351,53.932 288.023 C 53.523 288.694,53.046 289.497,52.872 289.807 C 52.699 290.117,51.465 292.231,50.130 294.504 C 48.794 296.778,47.628 298.765,47.538 298.920 C 47.448 299.075,46.734 300.262,45.951 301.558 C 44.440 304.061,44.391 304.199,44.778 304.932 C 44.915 305.190,45.496 306.291,46.070 307.378 C 48.947 312.823,51.307 316.601,53.691 319.576 C 56.072 322.546,59.740 326.540,60.083 326.537 C 60.267 326.535,61.062 325.344,61.062 325.071 C 61.062 324.948,61.125 324.847,61.203 324.847 C 61.280 324.847,61.553 324.446,61.809 323.955 C 62.064 323.464,62.328 323.020,62.395 322.969 C 62.462 322.917,62.760 322.430,63.057 321.888 C 63.355 321.345,63.725 320.669,63.881 320.385 C 64.564 319.136,65.283 317.970,65.511 317.741 C 65.647 317.605,65.759 317.406,65.759 317.299 C 65.759 317.192,66.012 316.729,66.322 316.270 C 66.632 315.810,66.886 315.391,66.886 315.339 C 66.886 315.241,70.149 309.716,70.949 308.459 C 71.194 308.073,71.395 307.721,71.395 307.675 C 71.395 307.629,71.818 306.910,72.334 306.077 C 72.851 305.244,73.274 304.521,73.274 304.470 C 73.274 304.386,74.973 301.512,75.999 299.859 C 76.224 299.497,76.891 298.356,77.482 297.323 C 78.782 295.048,78.596 295.362,80.214 292.687 C 80.944 291.481,81.541 290.409,81.541 290.305 C 81.541 290.201,81.651 290.004,81.786 289.868 C 81.921 289.731,82.238 289.239,82.491 288.774 C 82.743 288.309,82.998 287.886,83.058 287.835 C 83.117 287.783,83.371 287.360,83.621 286.895 C 83.872 286.430,84.183 285.938,84.312 285.802 C 84.441 285.665,84.547 285.439,84.547 285.298 C 84.547 285.158,84.652 284.928,84.782 284.787 C 85.139 284.398,85.470 283.851,85.695 283.279 C 85.807 282.994,85.969 282.762,86.056 282.762 C 86.142 282.762,86.273 282.572,86.346 282.339 C 86.420 282.107,86.700 281.578,86.967 281.165 C 87.235 280.752,87.560 280.202,87.688 279.944 C 87.941 279.434,88.342 278.779,88.492 278.628 C 88.584 278.537,88.672 278.387,89.471 276.959 C 89.680 276.585,90.011 276.056,90.205 275.781 C 90.400 275.507,90.559 275.226,90.559 275.156 C 90.559 275.087,91.320 273.770,92.250 272.230 C 93.180 270.690,93.941 269.396,93.941 269.353 C 93.941 269.311,94.617 268.158,95.444 266.792 C 96.271 265.426,96.947 264.283,96.947 264.252 C 96.947 264.222,98.141 262.181,99.601 259.717 C 104.356 251.694,104.650 251.187,104.650 251.019 C 104.650 250.928,104.715 250.825,104.795 250.791 C 104.992 250.705,106.529 248.082,106.529 247.830 C 106.529 247.719,106.599 247.628,106.685 247.628 C 106.770 247.628,107.038 247.205,107.280 246.689 C 107.522 246.172,107.785 245.749,107.864 245.749 C 107.942 245.749,108.066 245.559,108.139 245.326 C 108.212 245.094,108.500 244.566,108.779 244.152 C 109.059 243.739,109.563 242.893,109.899 242.273 C 110.235 241.653,110.578 241.062,110.662 240.958 C 110.745 240.855,111.056 240.348,111.353 239.831 C 111.650 239.314,112.060 238.609,112.264 238.265 C 113.798 235.671,114.608 234.258,114.608 234.174 C 114.608 234.120,114.819 233.798,115.078 233.460 C 115.336 233.121,115.547 232.780,115.547 232.702 C 115.547 232.624,116.012 231.809,116.581 230.890 C 117.149 229.971,117.614 229.173,117.614 229.116 C 117.614 229.059,117.772 228.783,117.964 228.503 C 118.321 227.985,119.929 225.276,120.759 223.794 C 121.011 223.344,121.802 222.009,122.516 220.827 C 123.230 219.644,123.814 218.652,123.814 218.622 C 123.814 218.591,124.490 217.445,125.317 216.075 C 126.144 214.706,126.820 213.554,126.820 213.516 C 126.820 212.559,128.046 211.624,131.750 209.759 C 142.531 204.328,150.796 200.205,152.560 199.379 C 155.698 197.909,157.652 196.975,161.734 194.995 C 163.834 193.976,165.578 193.142,165.608 193.142 C 165.638 193.142,167.090 192.458,168.834 191.621 C 170.579 190.785,172.724 189.759,173.603 189.342 C 174.481 188.924,175.330 188.516,175.489 188.434 C 175.814 188.268,176.015 188.434,179.707 191.922 C 181.018 193.162,182.612 194.668,183.248 195.270 C 183.885 195.871,185.089 197.013,185.924 197.806 C 186.759 198.599,187.942 199.713,188.554 200.280 C 190.564 202.144,192.833 204.276,196.064 207.339 C 197.816 208.998,199.664 210.731,200.173 211.190 C 200.681 211.649,201.489 212.405,201.968 212.870 C 202.446 213.335,204.012 214.814,205.446 216.158 C 206.881 217.501,208.288 218.847,208.574 219.148 C 209.017 219.616,209.136 219.660,209.391 219.448 C 209.689 219.201,221.325 201.855,221.325 201.658 C 221.325 201.600,221.620 201.150,221.982 200.658 C 222.344 200.165,222.640 199.674,222.640 199.568 C 222.640 199.461,222.705 199.346,222.784 199.311 C 222.863 199.277,223.221 198.783,223.580 198.215 C 223.938 197.647,224.296 197.097,224.375 196.994 C 224.875 196.345,225.834 194.813,225.834 194.666 C 225.834 194.568,225.900 194.461,225.981 194.426 C 226.062 194.392,226.630 193.560,227.243 192.579 C 227.856 191.597,228.424 190.766,228.505 190.731 C 228.586 190.697,228.652 190.589,228.652 190.492 C 228.652 190.395,228.950 189.873,229.315 189.333 C 229.679 188.793,230.060 188.225,230.160 188.070 C 230.260 187.915,230.976 186.827,231.752 185.652 C 232.527 184.477,233.161 183.487,233.161 183.453 C 233.161 183.386,233.993 182.094,234.242 181.775 C 234.322 181.672,234.681 181.123,235.039 180.554 C 235.398 179.986,235.756 179.493,235.835 179.458 C 235.914 179.424,235.979 179.316,235.979 179.219 C 235.979 179.045,237.011 177.441,237.597 176.703 C 237.761 176.496,237.980 176.094,238.083 175.810 C 238.186 175.526,238.328 175.294,238.397 175.294 C 238.467 175.294,238.691 174.977,238.896 174.589 C 239.100 174.202,239.422 173.715,239.612 173.509 C 239.802 173.302,240.077 172.903,240.225 172.621 C 240.499 172.098,241.301 170.839,241.576 170.503 C 241.660 170.399,241.893 170.021,242.095 169.663 C 242.296 169.304,242.529 168.924,242.611 168.817 C 243.226 168.021,245.368 164.708,245.466 164.402 C 245.532 164.192,245.646 164.021,245.719 164.021 C 245.792 164.021,246.018 163.704,246.221 163.316 C 246.425 162.929,246.645 162.569,246.710 162.518 C 246.776 162.466,246.994 162.150,247.196 161.816 L 247.564 161.209 249.132 162.662 C 249.995 163.461,251.185 164.580,251.778 165.148 C 253.836 167.120,257.706 170.733,258.541 171.462 C 258.791 171.680,259.134 172.018,259.304 172.214 C 259.473 172.409,260.309 173.203,261.160 173.978 C 262.011 174.753,263.192 175.853,263.783 176.421 C 264.374 176.989,265.904 178.426,267.183 179.615 C 270.220 182.436,271.692 183.819,272.881 184.969 C 273.415 185.486,274.946 186.923,276.284 188.163 C 278.793 190.489,280.439 192.035,282.484 193.988 C 283.997 195.432,285.247 196.605,288.493 199.624 C 291.037 201.991,291.767 202.679,293.753 204.590 C 294.270 205.088,295.964 206.668,297.518 208.102 C 300.294 210.663,301.251 211.559,303.407 213.621 C 309.129 219.093,308.365 218.616,311.790 218.856 C 321.136 219.511,333.464 222.294,344.387 226.215 C 347.953 227.495,348.041 227.501,347.363 226.397 C 347.141 226.036,346.705 225.275,346.394 224.706 C 346.083 224.138,345.775 223.631,345.710 223.579 C 345.645 223.527,345.094 222.597,344.484 221.512 C 343.875 220.427,343.139 219.186,342.848 218.754 C 342.558 218.322,342.320 217.913,342.320 217.844 C 342.320 217.775,342.134 217.457,341.906 217.136 C 341.677 216.816,341.354 216.296,341.188 215.980 C 341.021 215.664,340.688 215.068,340.448 214.655 C 340.207 214.241,339.755 213.438,339.444 212.870 C 339.132 212.302,338.825 211.794,338.762 211.743 C 338.699 211.691,338.438 211.247,338.183 210.756 C 337.927 210.265,337.654 209.864,337.577 209.864 C 337.499 209.864,337.435 209.778,337.435 209.673 C 337.435 209.567,337.097 208.925,336.684 208.244 C 336.271 207.564,335.932 206.965,335.932 206.914 C 335.932 206.863,335.742 206.555,335.510 206.229 C 335.278 205.903,334.961 205.404,334.805 205.120 C 333.648 203.003,333.428 202.620,333.325 202.536 C 333.261 202.485,333.039 202.110,332.832 201.705 C 332.626 201.299,332.372 200.875,332.269 200.762 C 332.165 200.649,331.871 200.157,331.615 199.668 C 331.359 199.179,331.084 198.779,331.004 198.779 C 330.925 198.779,330.860 198.681,330.860 198.560 C 330.860 198.383,330.046 196.933,328.978 195.209 C 328.561 194.536,327.314 192.415,326.878 191.639 C 325.992 190.061,325.650 189.481,324.685 187.915 C 324.154 187.055,323.720 186.318,323.720 186.278 C 323.720 186.238,323.255 185.430,322.687 184.483 C 322.118 183.536,321.653 182.716,321.653 182.662 C 321.653 182.607,321.442 182.285,321.184 181.947 C 320.925 181.608,320.714 181.277,320.714 181.211 C 320.714 181.145,320.318 180.442,319.833 179.649 C 319.349 178.855,318.795 177.910,318.602 177.548 C 318.409 177.186,317.964 176.426,317.613 175.857 C 317.262 175.289,316.754 174.416,316.485 173.917 C 316.216 173.418,315.639 172.446,315.203 171.756 C 314.767 171.067,314.308 170.291,314.182 170.033 C 313.947 169.551,313.851 169.391,312.964 168.004 C 312.680 167.559,312.447 167.149,312.447 167.092 C 312.447 167.034,312.194 166.612,311.884 166.152 C 311.574 165.693,311.320 165.277,311.320 165.228 C 311.320 165.158,309.221 161.569,308.307 160.075 C 307.574 158.877,306.059 156.292,306.059 156.238 C 306.059 156.201,305.392 155.068,304.576 153.719 C 303.760 152.371,303.062 151.196,303.025 151.109 C 302.907 150.827,300.761 147.221,300.398 146.696 C 300.205 146.416,300.047 146.144,300.047 146.092 C 300.047 146.040,299.582 145.230,299.014 144.293 C 298.445 143.356,297.980 142.528,297.980 142.454 C 297.980 142.380,297.684 141.903,297.323 141.394 C 296.961 140.886,296.665 140.404,296.665 140.324 C 296.665 140.244,296.422 139.815,296.125 139.371 C 295.828 138.926,295.526 138.372,295.455 138.140 C 295.383 137.907,295.254 137.717,295.168 137.717 C 295.082 137.717,294.920 137.485,294.808 137.201 C 294.696 136.916,294.269 136.134,293.858 135.463 C 293.448 134.791,292.929 133.909,292.706 133.502 C 292.483 133.095,292.183 132.645,292.040 132.502 C 291.897 132.359,291.780 132.154,291.780 132.048 C 291.780 131.941,291.544 131.503,291.255 131.075 C 290.966 130.646,290.680 130.169,290.620 130.014 C 290.560 129.859,289.899 128.718,289.151 127.478 C 288.403 126.238,287.623 124.927,287.416 124.566 C 286.343 122.687,285.478 121.208,285.109 120.620 C 284.757 120.059,284.134 119.011,282.152 115.641 C 281.970 115.331,281.678 114.803,281.505 114.467 C 281.331 114.131,281.120 113.856,281.036 113.856 C 280.952 113.856,280.883 113.770,280.883 113.665 C 280.883 113.560,280.545 112.917,280.132 112.237 C 279.718 111.556,279.380 110.972,279.380 110.938 C 279.380 110.904,278.619 109.606,277.689 108.052 C 276.759 106.499,275.998 105.186,275.998 105.135 C 275.998 105.084,275.779 104.722,275.511 104.330 C 275.243 103.938,274.672 102.995,274.243 102.236 C 273.813 101.477,273.250 100.490,272.992 100.042 C 272.734 99.595,272.321 98.864,272.074 98.417 C 271.828 97.970,271.568 97.562,271.496 97.511 C 271.424 97.459,271.166 97.015,270.924 96.524 C 270.681 96.033,270.413 95.632,270.328 95.632 C 270.243 95.632,270.174 95.555,270.174 95.460 C 270.174 95.221,268.627 92.546,268.445 92.469 C 268.362 92.435,268.295 92.322,268.295 92.219 C 268.295 92.115,267.757 91.129,267.100 90.027 C 266.442 88.924,265.417 87.177,264.821 86.144 C 264.225 85.110,263.590 84.051,263.411 83.789 C 263.116 83.361,262.693 82.620,261.925 81.187 C 261.780 80.917,261.609 80.653,261.545 80.601 C 261.481 80.550,261.219 80.106,260.963 79.615 C 260.708 79.124,260.435 78.722,260.357 78.722 C 260.280 78.722,260.216 78.636,260.216 78.531 C 260.216 78.426,259.878 77.783,259.465 77.103 C 259.051 76.422,258.713 75.837,258.713 75.802 C 258.713 75.767,257.952 74.474,257.022 72.929 C 256.092 71.383,255.331 70.075,255.331 70.022 C 255.331 69.932,254.226 68.175,253.884 67.720 C 253.802 67.611,253.577 67.230,253.386 66.875 C 252.469 65.172,251.866 64.118,251.547 63.663 C 251.355 63.389,251.198 63.084,251.198 62.987 C 251.198 62.890,251.029 62.615,250.822 62.377 C 250.615 62.138,250.446 61.830,250.446 61.690 C 250.446 61.551,250.371 61.437,250.279 61.437 C 250.187 61.437,250.058 61.226,249.993 60.968 C 249.928 60.709,249.792 60.498,249.691 60.498 C 249.590 60.498,249.507 60.421,249.507 60.327 C 249.507 60.153,248.019 57.477,247.826 57.304 C 247.769 57.252,247.517 56.829,247.266 56.364 C 247.016 55.899,246.762 55.477,246.703 55.425 C 246.643 55.373,246.390 54.951,246.139 54.486 C 245.888 54.021,245.635 53.598,245.575 53.546 C 245.515 53.495,245.340 53.199,245.186 52.889 C 244.938 52.393,243.218 49.422,242.737 48.661 C 242.639 48.506,242.344 47.999,242.082 47.534 C 241.820 47.069,241.441 46.435,241.240 46.125 C 241.039 45.815,240.650 45.139,240.375 44.622 C 240.100 44.105,239.823 43.640,239.759 43.589 C 239.695 43.537,239.438 43.114,239.187 42.649 C 238.937 42.184,238.683 41.761,238.624 41.710 C 238.564 41.658,238.356 41.320,238.161 40.958 C 237.965 40.597,237.035 39.003,236.094 37.416 C 235.153 35.830,234.140 34.097,233.844 33.565 C 233.548 33.033,233.244 32.555,233.169 32.504 C 233.093 32.452,232.974 32.177,232.905 31.893 C 232.835 31.609,232.695 31.376,232.594 31.376 C 232.493 31.376,232.410 31.290,232.410 31.185 C 232.410 31.079,232.180 30.635,231.899 30.198 C 231.618 29.761,231.185 29.023,230.937 28.558 C 230.688 28.093,230.378 27.586,230.248 27.431 C 230.118 27.276,229.954 26.959,229.883 26.726 C 229.812 26.494,229.685 26.303,229.601 26.303 C 229.516 26.303,229.396 26.155,229.334 25.975 C 229.272 25.794,229.040 25.350,228.820 24.988 C 228.599 24.627,228.208 23.928,227.951 23.437 C 227.694 22.945,227.408 22.496,227.316 22.439 C 227.223 22.382,226.980 21.967,226.775 21.517 C 226.570 21.067,226.296 20.586,226.165 20.448 C 226.035 20.310,225.722 19.817,225.472 19.352 C 224.671 17.867,224.618 17.781,224.284 17.400 C 224.103 17.195,223.955 16.947,223.955 16.851 C 223.955 16.704,222.702 14.493,222.071 13.527 C 221.970 13.372,221.811 13.077,221.719 12.870 C 221.626 12.663,221.330 12.173,221.062 11.781 C 220.793 11.389,220.573 10.998,220.573 10.912 C 220.573 10.826,220.454 10.656,220.307 10.535 C 220.161 10.414,219.856 9.917,219.628 9.431 C 219.125 8.358,218.506 7.862,218.506 8.533 M219.480 58.431 C 219.564 58.431,219.634 58.517,219.634 58.623 C 219.634 58.728,219.865 59.172,220.148 59.609 C 220.431 60.046,220.768 60.615,220.896 60.874 C 221.025 61.132,221.213 61.470,221.316 61.625 C 221.418 61.780,221.945 62.668,222.486 63.598 C 223.028 64.528,223.518 65.331,223.576 65.383 C 223.634 65.434,223.783 65.688,223.908 65.946 C 224.219 66.589,224.754 67.518,226.397 70.268 C 227.983 72.920,228.263 73.396,228.941 74.589 C 229.205 75.054,229.707 75.899,230.055 76.468 C 230.403 77.036,231.041 78.125,231.473 78.888 C 231.905 79.651,232.927 81.371,233.743 82.710 C 234.560 84.049,235.228 85.176,235.228 85.215 C 235.228 85.253,235.677 86.028,236.226 86.936 C 236.774 87.843,237.284 88.713,237.359 88.868 C 237.433 89.023,237.784 89.615,238.137 90.183 C 238.491 90.752,239.048 91.724,239.376 92.344 C 239.704 92.964,240.046 93.499,240.136 93.534 C 240.227 93.568,240.301 93.680,240.301 93.782 C 240.301 93.884,240.537 94.320,240.825 94.752 C 241.114 95.184,241.453 95.749,241.579 96.008 C 241.866 96.598,242.653 97.965,243.203 98.826 C 244.005 100.082,244.324 100.615,244.727 101.369 C 245.356 102.546,245.614 102.976,246.172 103.777 C 246.456 104.185,246.689 104.584,246.689 104.664 C 246.689 104.745,247.111 105.499,247.628 106.341 C 248.145 107.183,248.567 107.916,248.567 107.970 C 248.567 108.024,248.727 108.292,248.921 108.567 C 249.116 108.841,249.469 109.403,249.706 109.817 C 250.674 111.503,251.258 112.499,251.855 113.481 C 252.201 114.049,252.675 114.873,252.908 115.312 C 253.141 115.752,253.401 116.111,253.486 116.111 C 253.571 116.111,253.640 116.211,253.640 116.334 C 253.640 116.532,256.201 120.947,256.452 121.184 C 256.507 121.235,256.697 121.574,256.874 121.935 C 257.052 122.297,257.705 123.438,258.326 124.472 C 258.947 125.505,259.714 126.815,260.031 127.384 C 260.348 127.952,261.023 129.093,261.531 129.920 C 262.039 130.747,262.675 131.831,262.943 132.330 C 263.211 132.829,263.807 133.823,264.266 134.540 C 264.725 135.256,265.101 135.881,265.101 135.928 C 265.101 135.975,265.608 136.858,266.228 137.890 C 266.848 138.922,267.356 139.855,267.356 139.963 C 267.356 140.071,267.422 140.160,267.504 140.160 C 267.586 140.160,267.903 140.627,268.209 141.199 C 269.096 142.856,269.305 143.215,269.849 144.008 C 270.131 144.419,270.362 144.863,270.362 144.994 C 270.362 145.125,270.446 145.233,270.550 145.233 C 270.653 145.233,270.737 145.318,270.737 145.424 C 270.737 145.529,271.130 146.268,271.610 147.068 C 272.090 147.867,272.527 148.605,272.580 148.708 C 272.751 149.040,271.217 147.661,268.468 145.014 C 267.788 144.359,266.189 142.851,264.915 141.663 C 262.028 138.972,261.014 138.009,259.453 136.481 C 258.775 135.818,258.174 135.275,258.117 135.275 C 258.060 135.275,257.387 134.662,256.622 133.913 C 255.857 133.163,254.178 131.578,252.892 130.390 C 251.606 129.202,250.163 127.849,249.686 127.384 C 249.208 126.919,248.275 126.040,247.612 125.431 C 246.949 124.822,245.657 123.617,244.741 122.754 C 242.874 120.994,242.396 120.837,241.975 121.845 C 241.932 121.946,241.482 122.663,240.974 123.438 C 240.466 124.213,239.644 125.481,239.146 126.256 C 238.648 127.031,238.171 127.750,238.087 127.853 C 238.002 127.957,237.768 128.337,237.567 128.699 C 237.365 129.061,237.158 129.399,237.107 129.450 C 237.055 129.502,236.599 130.178,236.093 130.953 C 235.587 131.729,234.932 132.715,234.637 133.145 C 234.342 133.575,234.101 134.019,234.101 134.131 C 234.101 134.244,234.035 134.335,233.955 134.335 C 233.876 134.335,233.643 134.652,233.439 135.040 C 233.235 135.427,232.983 135.840,232.880 135.956 C 232.667 136.196,232.640 136.236,231.095 138.597 C 230.475 139.546,229.967 140.403,229.967 140.503 C 229.967 140.602,229.840 140.732,229.685 140.791 C 229.530 140.851,229.403 141.029,229.403 141.187 C 229.403 141.345,229.319 141.475,229.216 141.475 C 229.112 141.475,229.028 141.573,229.028 141.692 C 229.028 141.811,228.816 142.186,228.558 142.525 C 228.300 142.864,228.088 143.186,228.088 143.242 C 228.088 143.298,227.581 144.095,226.961 145.015 C 226.341 145.934,225.834 146.781,225.834 146.899 C 225.834 147.016,225.770 147.113,225.693 147.114 C 225.615 147.116,225.256 147.622,224.894 148.239 C 224.533 148.856,224.173 149.362,224.096 149.363 C 224.018 149.365,223.955 149.450,223.955 149.553 C 223.955 149.656,223.659 150.153,223.297 150.656 C 222.936 151.160,222.640 151.628,222.640 151.698 C 222.640 151.767,222.552 151.926,222.444 152.051 C 222.337 152.176,221.791 152.997,221.230 153.875 C 220.669 154.753,220.125 155.599,220.021 155.754 C 219.917 155.909,219.534 156.478,219.169 157.018 C 218.805 157.558,218.506 158.047,218.506 158.106 C 218.506 158.164,218.417 158.314,218.308 158.439 C 218.114 158.661,216.904 160.506,214.218 164.678 C 213.486 165.815,212.799 166.847,212.691 166.972 C 212.583 167.097,212.494 167.244,212.494 167.300 C 212.494 167.356,212.198 167.814,211.837 168.317 C 211.475 168.820,211.179 169.289,211.179 169.359 C 211.179 169.428,211.093 169.587,210.989 169.712 C 210.513 170.280,209.301 172.215,209.301 172.408 C 209.300 172.526,209.173 172.672,209.018 172.731 C 208.863 172.791,208.736 172.969,208.736 173.127 C 208.736 173.285,208.652 173.415,208.549 173.415 C 208.445 173.415,208.361 173.487,208.361 173.576 C 208.361 173.710,205.785 177.738,204.940 178.927 C 204.708 179.252,204.657 179.236,204.031 178.645 C 203.667 178.300,202.070 176.792,200.483 175.294 C 198.896 173.795,197.158 172.147,196.621 171.630 C 195.224 170.286,189.449 164.784,188.733 164.115 C 186.753 162.265,183.301 159.013,181.900 157.680 C 181.005 156.828,180.171 156.131,180.047 156.130 C 179.923 156.130,177.429 157.346,174.504 158.832 C 165.410 163.453,153.234 169.579,152.869 169.717 C 152.554 169.836,152.561 169.782,152.944 169.142 C 154.700 166.211,155.942 164.018,155.942 163.847 C 155.942 163.736,156.011 163.645,156.096 163.645 C 156.181 163.645,156.440 163.286,156.671 162.846 C 156.901 162.407,157.508 161.338,158.019 160.470 C 158.530 159.603,158.948 158.821,158.948 158.732 C 158.948 158.644,159.020 158.572,159.107 158.572 C 159.195 158.572,159.425 158.222,159.618 157.793 C 159.811 157.365,160.061 156.921,160.173 156.807 C 160.285 156.693,160.630 156.134,160.940 155.566 C 161.670 154.226,162.025 153.616,162.142 153.499 C 162.316 153.325,162.705 152.657,162.906 152.188 C 163.015 151.932,163.169 151.678,163.247 151.624 C 163.325 151.571,163.579 151.146,163.810 150.681 C 164.042 150.216,164.563 149.328,164.967 148.708 C 165.371 148.088,165.827 147.327,165.982 147.017 C 166.377 146.225,167.061 145.053,168.288 143.065 C 168.477 142.757,170.420 139.439,171.066 138.319 C 171.170 138.140,171.682 137.276,172.206 136.399 C 174.574 132.433,175.294 131.173,175.294 130.992 C 175.294 130.885,175.363 130.769,175.447 130.734 C 175.532 130.700,176.271 129.532,177.091 128.140 C 177.911 126.747,178.666 125.467,178.769 125.294 C 178.873 125.122,179.375 124.232,179.884 123.317 C 180.394 122.402,180.869 121.611,180.940 121.559 C 181.010 121.508,181.259 121.085,181.494 120.620 C 181.728 120.155,181.978 119.732,182.050 119.681 C 182.121 119.629,182.384 119.206,182.635 118.741 C 182.886 118.276,183.196 117.784,183.326 117.647 C 183.455 117.511,183.560 117.284,183.560 117.144 C 183.560 117.004,183.666 116.777,183.795 116.641 C 183.924 116.504,184.235 116.012,184.486 115.547 C 184.736 115.082,184.990 114.659,185.049 114.608 C 185.109 114.556,185.360 114.133,185.608 113.668 C 185.856 113.203,186.154 112.696,186.272 112.541 C 186.389 112.386,186.687 111.879,186.934 111.414 C 187.182 110.949,187.600 110.230,187.863 109.817 C 188.126 109.403,188.436 108.896,188.552 108.690 C 189.124 107.666,190.996 104.473,191.385 103.855 C 191.628 103.470,191.827 103.068,191.827 102.963 C 191.827 102.857,191.891 102.771,191.969 102.771 C 192.047 102.771,192.216 102.539,192.343 102.255 C 192.471 101.970,192.761 101.442,192.989 101.080 C 193.868 99.684,195.961 95.985,195.961 95.828 C 195.961 95.737,196.031 95.635,196.118 95.600 C 196.313 95.523,198.967 91.028,198.967 90.775 C 198.967 90.673,199.035 90.562,199.117 90.528 C 199.313 90.446,200.617 88.281,202.040 85.674 C 202.350 85.106,202.653 84.598,202.713 84.547 C 202.773 84.495,203.143 83.903,203.537 83.232 C 203.930 82.560,204.326 81.884,204.417 81.729 C 204.508 81.574,204.810 81.024,205.087 80.507 C 205.364 79.991,205.653 79.526,205.729 79.474 C 205.805 79.422,206.058 79.005,206.291 78.546 C 206.523 78.088,206.830 77.596,206.973 77.453 C 207.116 77.310,207.233 77.121,207.233 77.034 C 207.233 76.947,207.613 76.255,208.077 75.497 C 208.540 74.739,209.005 73.923,209.110 73.684 C 209.215 73.444,209.512 72.971,209.770 72.633 C 210.028 72.294,210.240 71.955,210.240 71.879 C 210.240 71.803,210.862 70.712,211.623 69.454 C 212.384 68.197,213.191 66.829,213.417 66.416 C 213.642 66.003,214.106 65.200,214.447 64.631 C 215.459 62.948,217.003 60.320,217.914 58.732 L 218.766 57.248 219.046 57.840 C 219.200 58.165,219.395 58.431,219.480 58.431 M295.068 227.278 C 293.511 227.359,291.145 227.660,288.586 228.104 C 287.398 228.310,285.918 228.564,285.298 228.668 C 284.678 228.772,283.748 228.974,283.232 229.118 C 282.715 229.263,280.897 229.721,279.192 230.137 C 275.946 230.929,272.681 231.938,269.986 232.980 C 267.664 233.878,262.474 235.979,262.118 236.165 C 261.776 236.344,259.210 237.548,257.492 238.335 C 255.706 239.154,251.111 241.715,248.794 243.183 C 247.627 243.923,246.401 244.693,246.070 244.894 C 244.604 245.785,239.975 249.317,237.224 251.643 C 234.199 254.201,230.374 258.104,227.242 261.828 C 223.425 266.366,223.637 266.079,217.621 274.871 C 216.525 276.473,214.769 279.051,213.719 280.601 C 212.668 282.151,211.434 283.954,210.977 284.608 C 210.520 285.261,209.934 286.115,209.676 286.504 C 209.418 286.893,208.372 288.472,207.352 290.013 C 206.332 291.553,205.378 292.983,205.232 293.189 C 204.477 294.262,201.047 299.504,198.881 302.897 C 197.900 304.433,196.401 306.850,194.546 309.885 C 190.569 316.396,185.536 323.570,181.420 328.599 C 177.336 333.589,175.826 335.188,170.398 340.270 C 166.107 344.288,165.791 344.566,163.089 346.714 C 159.269 349.751,158.474 350.327,154.627 352.846 C 152.126 354.483,148.312 356.554,144.110 358.556 C 135.044 362.876,124.462 365.227,114.044 365.235 C 111.506 365.237,108.991 365.133,107.750 364.975 C 106.613 364.830,104.880 364.615,103.899 364.496 C 97.760 363.752,87.997 360.543,81.822 357.239 C 79.206 355.839,78.741 355.579,77.219 354.667 C 65.419 347.595,54.529 336.841,45.502 323.344 C 44.431 321.743,43.391 320.136,43.190 319.775 C 42.990 319.413,42.681 318.896,42.503 318.626 C 42.325 318.356,41.644 317.193,40.989 316.042 C 40.334 314.892,39.742 313.953,39.674 313.956 C 39.474 313.966,24.927 336.550,24.844 336.980 C 24.563 338.435,32.628 350.212,38.342 356.693 C 51.326 371.419,72.093 384.288,89.432 388.355 C 90.827 388.682,92.264 389.026,92.626 389.119 C 94.009 389.474,99.397 390.419,101.644 390.700 C 102.936 390.862,104.922 391.116,106.059 391.266 C 113.059 392.185,124.833 392.180,130.578 391.257 C 131.559 391.099,133.166 390.838,134.147 390.678 C 135.129 390.518,136.989 390.092,138.281 389.732 C 139.573 389.372,141.090 388.953,141.654 388.801 C 143.208 388.381,148.554 386.485,149.887 385.880 C 150.536 385.586,151.116 385.345,151.177 385.345 C 151.237 385.345,152.144 384.933,153.192 384.430 C 154.239 383.926,155.308 383.415,155.566 383.293 C 156.351 382.924,157.076 382.529,159.136 381.346 C 160.221 380.723,161.574 379.947,162.142 379.621 C 163.555 378.811,167.803 375.961,169.222 374.871 C 169.862 374.380,171.553 373.095,172.980 372.015 C 177.051 368.935,185.739 361.210,187.304 359.279 C 187.452 359.097,188.552 357.933,189.750 356.693 C 192.065 354.296,197.374 348.529,199.248 346.375 C 200.298 345.169,201.808 343.264,209.132 333.901 C 213.658 328.115,217.976 321.870,223.585 312.997 C 224.855 310.990,226.472 308.477,227.179 307.414 C 227.886 306.351,228.464 305.400,228.464 305.300 C 228.464 305.201,228.549 305.120,228.652 305.120 C 228.755 305.120,228.840 305.037,228.840 304.936 C 228.840 304.767,230.276 302.386,231.846 299.953 C 232.208 299.392,232.962 298.191,233.522 297.283 C 249.862 270.809,268.926 258.349,298.262 254.969 C 319.013 252.578,344.255 258.259,369.748 271.057 C 372.691 272.535,375.130 273.744,375.168 273.744 C 375.206 273.744,375.045 273.426,374.811 273.039 C 374.577 272.651,374.210 272.022,373.994 271.640 C 373.779 271.258,373.201 270.276,372.710 269.458 C 372.219 268.640,371.818 267.875,371.818 267.757 C 371.818 267.640,371.753 267.543,371.673 267.543 C 371.593 267.543,371.318 267.142,371.062 266.651 C 370.806 266.160,370.548 265.716,370.489 265.665 C 370.429 265.613,370.176 265.190,369.925 264.725 C 369.674 264.260,369.420 263.837,369.359 263.786 C 369.299 263.734,368.926 263.100,368.530 262.377 C 367.672 260.806,366.509 258.844,366.359 258.713 C 366.299 258.661,365.857 257.900,365.375 257.022 C 364.893 256.144,364.038 254.664,363.475 253.734 C 362.168 251.578,360.846 249.323,360.115 248.004 C 359.800 247.435,359.472 246.942,359.386 246.908 C 359.300 246.873,359.230 246.769,359.230 246.676 C 359.230 246.517,357.682 243.796,356.993 242.743 C 356.824 242.485,356.518 241.950,356.314 241.556 C 355.753 240.473,355.152 239.979,353.499 239.241 C 352.673 238.872,351.616 238.400,351.151 238.193 C 344.577 235.256,331.983 231.309,324.002 229.685 C 321.729 229.222,319.361 228.721,318.741 228.571 C 314.097 227.451,303.223 226.857,295.068 227.278 " stroke="none" fill="#000000" fill-rule="evenodd"></path></g></svg>