<svg id="svg" xmlns="http://www.w3.org/2000/svg" xmlns:xlink="http://www.w3.org/1999/xlink" width="400" height="400" viewBox="0, 0, 400,400"><g id="svgg"><path id="path0" d="M203.961 27.176 C 200.287 28.065,198.938 31.668,201.384 34.056 C 202.279 34.930,203.058 35.255,205.387 35.726 C 208.349 36.327,209.285 36.808,209.880 38.038 C 211.123 40.605,207.118 43.034,203.722 41.772 C 202.369 41.269,201.116 40.062,201.109 39.254 C 201.106 38.802,200.950 38.751,200.396 39.020 C 198.903 39.745,201.163 42.428,203.844 43.114 C 208.267 44.245,212.411 41.188,211.114 37.750 C 210.424 35.923,209.006 35.114,205.258 34.413 C 201.827 33.771,200.343 31.631,202.012 29.735 C 204.294 27.143,209.832 28.071,210.393 31.139 C 210.483 31.633,210.431 31.623,211.104 31.281 L 211.645 31.007 211.538 30.531 C 210.982 28.047,207.229 26.385,203.961 27.176 M175.319 28.675 C 169.899 29.471,166.822 35.656,169.402 40.567 C 172.144 45.783,179.402 46.470,182.945 41.848 C 183.562 41.042,183.562 41.006,182.940 40.676 L 182.435 40.409 182.257 40.676 C 179.763 44.421,174.070 44.663,171.278 41.143 C 166.280 34.841,174.098 26.464,180.573 31.182 L 181.091 31.559 181.488 31.095 C 181.952 30.552,181.948 30.543,180.966 29.903 C 179.343 28.846,177.250 28.391,175.319 28.675 M223.692 28.996 C 216.613 30.904,215.514 40.751,222.000 44.159 C 227.592 47.097,234.295 42.671,233.850 36.333 C 233.492 31.231,228.576 27.679,223.692 28.996 M227.499 30.222 C 232.573 31.520,234.333 37.977,230.631 41.715 C 225.121 47.279,216.209 40.824,219.681 33.784 C 221.086 30.933,224.392 29.427,227.499 30.222 M158.685 32.127 C 158.416 32.204,158.332 32.281,158.380 32.407 C 158.417 32.502,159.300 35.986,160.342 40.149 C 161.385 44.313,162.248 47.730,162.261 47.743 C 162.302 47.784,163.274 47.528,163.358 47.455 C 163.418 47.402,160.512 35.584,159.674 32.472 C 159.536 31.957,159.417 31.916,158.685 32.127 M243.720 32.472 C 243.693 32.549,242.447 35.910,240.953 39.942 C 239.459 43.974,238.252 47.289,238.271 47.308 C 238.392 47.429,247.615 50.779,247.718 50.739 C 247.888 50.674,248.154 49.774,248.036 49.667 C 247.986 49.621,246.129 48.915,243.911 48.098 C 240.304 46.768,239.881 46.588,239.921 46.389 C 239.945 46.267,241.072 43.186,242.427 39.542 C 243.781 35.899,244.889 32.868,244.889 32.807 C 244.889 32.569,243.799 32.256,243.720 32.472 M144.611 36.100 C 141.189 37.245,138.319 38.206,138.234 38.235 C 137.939 38.337,138.405 39.471,138.705 39.382 C 138.837 39.344,140.180 38.907,141.690 38.411 C 143.200 37.916,144.454 37.533,144.475 37.561 C 144.497 37.588,145.529 40.686,146.768 44.444 C 149.303 52.130,149.041 51.508,149.665 51.321 C 150.344 51.117,150.426 51.470,148.018 44.203 C 146.797 40.516,145.780 37.405,145.760 37.289 C 145.727 37.106,146.092 36.955,148.576 36.123 C 151.868 35.020,151.601 35.170,151.436 34.514 C 151.263 33.827,151.741 33.716,144.611 36.100 M259.342 37.700 C 259.288 37.840,258.380 40.103,257.323 42.728 L 255.401 47.500 255.354 48.731 C 255.170 53.517,259.710 56.518,264.080 54.499 C 266.148 53.544,266.845 52.253,270.748 42.140 C 270.810 41.978,269.784 41.502,269.660 41.635 C 269.615 41.683,268.744 43.797,267.725 46.333 C 265.611 51.592,265.510 51.800,264.705 52.562 C 261.411 55.677,256.035 52.917,256.574 48.389 C 256.632 47.908,257.197 46.370,258.605 42.864 C 260.876 37.206,260.675 37.932,260.046 37.663 C 259.420 37.394,259.459 37.392,259.342 37.700 M126.167 43.683 C 123.661 44.844,121.571 45.834,121.522 45.881 C 121.387 46.011,128.076 60.395,128.255 60.361 C 128.524 60.310,137.498 56.118,137.525 56.031 C 137.540 55.983,137.441 55.707,137.304 55.418 L 137.056 54.891 132.889 56.823 C 130.597 57.886,128.717 58.748,128.712 58.739 C 128.407 58.252,126.231 53.280,126.295 53.217 C 126.376 53.138,130.396 51.247,132.077 50.497 L 132.655 50.240 132.417 49.675 C 132.121 48.977,132.556 48.867,128.914 50.556 C 127.201 51.350,125.753 52.000,125.698 52.000 C 125.591 52.000,123.045 46.580,123.122 46.515 C 123.146 46.494,125.003 45.632,127.247 44.599 C 129.502 43.562,131.329 42.658,131.330 42.579 C 131.334 42.383,130.904 41.554,130.803 41.563 C 130.759 41.567,128.672 42.521,126.167 43.683 M276.720 45.894 L 276.435 46.455 279.268 47.832 L 282.101 49.209 280.620 52.243 C 279.805 53.912,278.358 56.873,277.403 58.823 C 275.386 62.941,275.539 62.449,276.183 62.762 C 276.835 63.079,276.390 63.821,280.007 56.389 C 281.732 52.844,283.175 49.908,283.213 49.864 C 283.252 49.820,284.500 50.382,285.988 51.114 C 287.475 51.846,288.755 52.444,288.832 52.444 C 288.943 52.444,289.482 51.442,289.408 51.372 C 289.369 51.335,277.710 45.640,277.363 45.489 L 277.004 45.332 276.720 45.894 M108.500 53.282 C 105.383 55.262,102.791 56.898,102.738 56.917 C 102.633 56.956,103.229 58.000,103.357 58.000 C 103.401 58.000,104.584 57.275,105.985 56.389 C 107.386 55.503,108.575 54.778,108.628 54.779 C 108.680 54.779,110.472 57.554,112.611 60.944 C 114.750 64.334,116.539 67.109,116.586 67.110 C 116.714 67.112,117.556 66.538,117.556 66.448 C 117.556 66.406,115.804 63.600,113.662 60.213 C 109.969 54.372,109.780 54.047,109.977 53.889 C 110.091 53.797,111.266 53.047,112.587 52.222 C 113.909 51.397,114.992 50.684,114.995 50.637 C 115.004 50.473,114.414 49.667,114.291 49.675 C 114.223 49.679,111.617 51.303,108.500 53.282 M291.850 62.779 C 289.427 66.386,287.444 69.379,287.444 69.431 C 287.444 69.660,288.356 70.136,288.500 69.983 C 288.620 69.854,297.060 57.276,297.258 56.930 C 297.325 56.813,296.570 56.222,296.352 56.222 C 296.299 56.222,294.273 59.173,291.850 62.779 M93.380 64.169 C 91.063 65.728,89.167 67.053,89.167 67.112 C 89.167 67.247,97.919 80.322,98.014 80.329 C 98.078 80.333,106.223 74.894,106.525 74.645 C 106.659 74.534,106.108 73.556,105.911 73.555 C 105.868 73.555,104.147 74.689,102.086 76.076 C 100.025 77.463,98.321 78.576,98.299 78.549 C 98.038 78.228,95.001 73.658,95.004 73.591 C 95.006 73.541,96.306 72.627,97.893 71.561 C 99.480 70.495,100.778 69.572,100.778 69.511 C 100.778 69.399,100.225 68.556,100.151 68.556 C 100.129 68.556,98.785 69.439,97.166 70.518 C 95.547 71.598,94.205 72.460,94.185 72.435 C 93.910 72.086,90.889 67.534,90.889 67.469 C 90.889 67.420,92.588 66.239,94.664 64.845 L 98.439 62.310 98.103 61.822 C 97.670 61.192,98.184 60.937,93.380 64.169 M303.263 64.499 C 296.886 65.886,294.534 73.652,299.106 78.228 C 304.087 83.213,312.530 79.959,312.965 72.887 C 313.291 67.591,308.418 63.378,303.263 64.499 M306.778 65.841 C 311.752 67.307,313.370 73.547,309.739 77.265 C 305.322 81.789,297.741 78.526,298.027 72.224 C 298.229 67.758,302.561 64.599,306.778 65.841 M80.611 75.887 C 79.578 76.224,78.866 76.776,76.487 79.084 L 74.282 81.223 75.399 82.361 C 76.917 83.910,85.117 92.351,85.287 92.541 C 85.424 92.694,86.333 92.111,86.333 91.872 C 86.333 91.822,84.300 89.692,81.815 87.140 C 79.330 84.588,77.025 82.218,76.692 81.873 L 76.087 81.247 77.778 79.596 C 80.572 76.868,81.789 76.337,83.500 77.098 C 85.988 78.206,85.838 80.782,83.122 83.585 C 82.425 84.304,81.876 84.913,81.902 84.939 C 81.928 84.965,84.266 85.245,87.098 85.560 L 92.247 86.134 92.788 85.601 C 93.085 85.309,93.308 85.049,93.284 85.025 C 93.259 85.000,91.309 84.767,88.950 84.506 C 86.591 84.245,84.637 84.008,84.609 83.980 C 84.581 83.951,84.783 83.664,85.059 83.342 C 88.374 79.458,85.325 74.348,80.611 75.887 M316.278 82.465 C 313.100 85.471,310.482 87.975,310.460 88.030 C 310.417 88.138,311.098 88.889,311.240 88.889 C 311.286 88.889,313.385 86.939,315.903 84.556 C 318.421 82.172,320.491 80.235,320.503 80.250 C 320.514 80.265,320.082 84.003,319.541 88.556 C 319.001 93.108,318.571 96.901,318.585 96.984 C 318.599 97.066,321.270 94.619,324.520 91.544 L 330.430 85.955 330.076 85.543 C 329.881 85.316,329.669 85.126,329.605 85.121 C 329.540 85.115,327.424 87.066,324.902 89.455 C 322.380 91.844,320.305 93.781,320.290 93.760 C 320.275 93.739,320.701 90.022,321.236 85.500 C 322.326 76.294,322.251 77.000,322.139 77.001 C 322.093 77.001,319.456 79.460,316.278 82.465 M209.667 86.713 C 209.667 86.800,209.625 86.887,209.574 86.907 C 209.523 86.928,209.335 87.204,209.157 87.521 C 208.979 87.839,208.552 88.564,208.207 89.133 C 207.863 89.701,207.482 90.342,207.362 90.556 C 207.242 90.769,206.829 91.469,206.444 92.111 C 206.060 92.753,205.660 93.428,205.556 93.611 C 205.058 94.487,204.171 95.976,203.985 96.246 C 203.871 96.411,203.778 96.572,203.778 96.603 C 203.778 96.634,203.503 97.112,203.167 97.667 C 202.831 98.221,202.556 98.694,202.556 98.718 C 202.556 98.742,202.308 99.165,202.006 99.657 C 201.704 100.150,201.246 100.941,200.988 101.415 C 200.731 101.890,200.485 102.303,200.442 102.333 C 200.398 102.364,200.250 102.614,200.111 102.889 C 199.972 103.164,199.824 103.414,199.782 103.444 C 199.739 103.475,199.587 103.737,199.444 104.028 C 199.300 104.318,199.142 104.556,199.091 104.556 C 199.041 104.556,199.000 104.614,199.000 104.685 C 199.000 104.755,198.656 105.393,198.235 106.101 C 197.814 106.809,197.089 108.030,196.624 108.813 C 196.158 109.596,195.778 110.267,195.778 110.304 C 195.778 110.341,195.709 110.450,195.626 110.547 C 195.542 110.643,195.349 110.947,195.197 111.222 C 195.045 111.497,194.763 111.987,194.571 112.310 C 194.379 112.634,194.222 112.946,194.222 113.005 C 194.222 113.063,194.182 113.111,194.133 113.111 C 194.084 113.111,193.921 113.360,193.772 113.665 C 193.622 113.970,193.462 114.220,193.417 114.220 C 193.371 114.221,193.333 114.268,193.333 114.324 C 193.333 114.381,193.068 114.868,192.743 115.408 C 192.015 116.618,190.657 118.920,190.362 119.444 C 190.242 119.658,189.911 120.215,189.627 120.681 C 189.343 121.147,189.111 121.584,189.111 121.653 C 189.111 121.722,189.073 121.778,189.025 121.778 C 188.978 121.778,188.816 122.013,188.664 122.300 C 188.513 122.587,188.264 123.025,188.111 123.272 C 187.958 123.520,187.772 123.822,187.696 123.944 C 187.621 124.067,187.425 124.429,187.262 124.750 C 187.098 125.071,186.922 125.333,186.871 125.333 C 186.820 125.333,186.778 125.387,186.778 125.453 C 186.778 125.572,185.901 127.117,185.773 127.222 C 185.736 127.253,185.678 127.353,185.644 127.444 C 185.592 127.584,183.669 130.871,182.751 132.389 C 181.880 133.831,181.333 134.795,181.333 134.890 C 181.333 134.951,181.283 135.000,181.222 135.000 C 181.161 135.000,181.111 135.044,181.111 135.099 C 181.111 135.153,180.711 135.859,180.222 136.667 C 179.733 137.475,179.333 138.153,179.333 138.175 C 179.333 138.207,178.482 139.660,178.005 140.444 C 177.385 141.462,176.889 142.350,176.889 142.442 C 176.889 142.504,176.848 142.556,176.797 142.556 C 176.747 142.556,176.589 142.793,176.445 143.083 C 176.302 143.374,176.150 143.636,176.108 143.667 C 176.066 143.697,175.910 143.947,175.762 144.222 C 175.614 144.497,175.364 144.922,175.207 145.167 C 175.050 145.411,174.886 145.724,174.842 145.861 C 174.798 145.999,174.716 146.111,174.659 146.111 C 174.602 146.111,174.554 146.174,174.552 146.250 C 174.551 146.326,174.328 146.739,174.057 147.167 C 173.786 147.594,173.477 148.119,173.370 148.333 C 173.262 148.547,172.885 149.188,172.532 149.757 C 172.178 150.326,171.889 150.818,171.889 150.851 C 171.889 150.883,171.795 151.043,171.679 151.205 C 171.498 151.461,171.155 152.048,170.728 152.833 C 170.662 152.956,170.513 153.197,170.397 153.369 C 170.281 153.541,170.107 153.827,170.010 154.005 C 169.673 154.620,168.961 155.840,168.132 157.222 C 167.673 157.986,167.213 158.761,167.110 158.944 C 166.850 159.403,165.910 161.018,165.784 161.222 C 165.123 162.294,164.667 163.104,164.667 163.207 C 164.667 163.276,164.626 163.333,164.575 163.333 C 164.525 163.333,164.366 163.571,164.223 163.861 C 164.080 164.151,163.930 164.414,163.890 164.444 C 163.850 164.475,163.695 164.725,163.547 165.000 C 163.399 165.275,163.247 165.525,163.209 165.556 C 163.171 165.586,163.005 165.861,162.840 166.167 C 162.168 167.411,161.989 167.717,161.831 167.891 C 161.741 167.991,161.667 168.152,161.667 168.249 C 161.667 168.347,161.624 168.443,161.571 168.463 C 161.479 168.499,160.556 169.967,160.556 170.078 C 160.556 170.109,160.256 170.628,159.889 171.231 C 159.522 171.835,159.222 172.380,159.222 172.442 C 159.222 172.504,159.172 172.556,159.111 172.556 C 159.050 172.556,159.000 172.606,159.000 172.669 C 159.000 172.731,158.750 173.185,158.444 173.677 C 158.139 174.170,157.889 174.610,157.889 174.656 C 157.889 174.701,157.740 174.935,157.559 175.175 C 157.377 175.415,157.227 175.646,157.225 175.690 C 157.222 175.786,156.056 177.780,155.894 177.968 C 155.830 178.041,155.778 178.127,155.778 178.158 C 155.778 178.204,153.910 181.442,153.562 182.000 C 152.887 183.081,151.889 184.799,151.889 184.880 C 151.889 184.937,151.825 185.050,151.747 185.131 C 151.603 185.281,150.444 187.186,150.444 187.274 C 150.444 187.300,150.294 187.544,150.111 187.816 C 149.928 188.088,149.778 188.359,149.778 188.419 C 149.778 188.479,149.703 188.591,149.611 188.667 C 149.519 188.743,149.444 188.899,149.444 189.014 C 149.444 189.128,149.398 189.222,149.342 189.222 C 149.246 189.222,149.045 189.553,148.194 191.111 C 148.011 191.447,147.817 191.739,147.764 191.759 C 147.710 191.780,147.667 191.888,147.667 192.000 C 147.667 192.112,147.629 192.220,147.583 192.241 C 147.495 192.280,146.930 193.172,146.469 194.000 C 146.316 194.275,145.973 194.862,145.707 195.304 C 145.440 195.746,145.222 196.158,145.222 196.220 C 145.222 196.282,145.172 196.333,145.111 196.333 C 145.050 196.333,145.000 196.384,145.000 196.446 C 145.000 196.551,144.304 197.762,143.724 198.667 C 143.587 198.881,143.281 199.397,143.043 199.815 C 142.805 200.233,142.453 200.833,142.260 201.149 C 142.067 201.464,141.799 201.922,141.664 202.167 C 141.400 202.647,139.681 205.559,138.370 207.749 C 137.922 208.497,137.556 209.139,137.556 209.177 C 137.556 209.215,137.404 209.469,137.220 209.743 C 137.035 210.017,136.783 210.424,136.659 210.648 C 136.535 210.872,136.255 211.356,136.037 211.722 C 135.590 212.473,135.329 212.921,134.987 213.528 C 134.858 213.757,134.658 214.077,134.543 214.239 C 134.427 214.402,134.333 214.558,134.333 214.586 C 134.333 214.615,134.052 215.107,133.708 215.680 C 133.364 216.253,133.054 216.797,133.019 216.889 C 132.984 216.981,132.913 217.106,132.862 217.167 C 132.716 217.339,131.578 219.232,131.359 219.667 C 131.251 219.881,131.068 220.197,130.952 220.369 C 130.837 220.541,130.663 220.824,130.565 220.998 C 130.211 221.632,129.773 222.393,129.670 222.556 C 129.362 223.040,127.556 226.140,127.556 226.185 C 127.556 226.214,127.406 226.456,127.222 226.722 C 127.039 226.989,126.889 227.230,126.889 227.258 C 126.889 227.286,126.498 227.955,126.020 228.745 C 125.541 229.536,125.117 230.254,125.076 230.341 C 125.035 230.428,124.805 230.825,124.564 231.222 C 124.323 231.619,123.981 232.194,123.804 232.500 C 123.492 233.037,122.554 234.634,122.069 235.454 C 121.939 235.674,121.488 236.449,121.066 237.176 C 120.396 238.331,120.035 238.933,119.473 239.834 C 119.397 239.956,119.209 240.281,119.054 240.556 C 118.900 240.831,118.625 241.306,118.445 241.611 C 118.264 241.917,118.008 242.367,117.876 242.611 C 117.745 242.856,117.600 243.081,117.555 243.111 C 117.510 243.142,117.342 243.417,117.180 243.722 C 116.875 244.300,116.801 244.428,116.341 245.167 C 116.189 245.411,115.975 245.774,115.866 245.972 C 115.756 246.171,115.577 246.496,115.467 246.694 C 115.357 246.893,115.132 247.267,114.967 247.526 C 114.802 247.784,114.667 248.018,114.667 248.045 C 114.667 248.071,114.417 248.497,114.111 248.989 C 113.806 249.482,113.556 249.914,113.556 249.950 C 113.556 249.986,113.414 250.225,113.241 250.480 C 113.068 250.735,112.893 251.019,112.853 251.111 C 112.813 251.203,112.582 251.603,112.339 252.000 C 112.097 252.397,111.815 252.872,111.713 253.056 C 111.610 253.239,110.880 254.489,110.090 255.833 C 109.301 257.178,108.611 258.353,108.558 258.444 C 108.505 258.536,108.082 259.238,107.620 260.005 C 106.726 261.485,106.697 261.567,106.926 262.000 C 107.006 262.153,107.350 262.804,107.690 263.447 C 109.391 266.667,110.787 268.901,112.197 270.660 C 113.605 272.417,115.774 274.779,115.977 274.777 C 116.086 274.776,116.556 274.072,116.556 273.910 C 116.556 273.837,116.593 273.778,116.639 273.778 C 116.685 273.778,116.846 273.540,116.997 273.250 C 117.149 272.960,117.305 272.697,117.344 272.667 C 117.384 272.636,117.560 272.348,117.736 272.027 C 117.912 271.706,118.131 271.306,118.223 271.139 C 118.627 270.400,119.052 269.711,119.187 269.575 C 119.268 269.495,119.333 269.377,119.333 269.314 C 119.333 269.251,119.483 268.977,119.667 268.705 C 119.850 268.433,120.000 268.186,120.000 268.155 C 120.000 268.097,121.930 264.830,122.403 264.086 C 122.548 263.858,122.667 263.649,122.667 263.622 C 122.667 263.595,122.917 263.170,123.222 262.677 C 123.528 262.185,123.778 261.757,123.778 261.727 C 123.778 261.677,124.782 259.978,125.390 259.000 C 125.522 258.786,125.917 258.111,126.266 257.500 C 127.035 256.155,126.926 256.341,127.882 254.759 C 128.314 254.045,128.667 253.411,128.667 253.350 C 128.667 253.288,128.732 253.172,128.812 253.091 C 128.892 253.011,129.079 252.719,129.228 252.444 C 129.378 252.169,129.529 251.919,129.564 251.889 C 129.599 251.858,129.749 251.608,129.897 251.333 C 130.045 251.058,130.229 250.767,130.306 250.687 C 130.382 250.606,130.444 250.472,130.444 250.389 C 130.444 250.306,130.507 250.170,130.583 250.087 C 130.794 249.856,130.990 249.533,131.124 249.194 C 131.190 249.026,131.286 248.889,131.337 248.889 C 131.388 248.889,131.465 248.776,131.509 248.639 C 131.552 248.501,131.718 248.189,131.876 247.944 C 132.034 247.700,132.226 247.375,132.302 247.222 C 132.452 246.921,132.689 246.533,132.778 246.444 C 132.832 246.390,132.884 246.302,133.357 245.457 C 133.480 245.236,133.676 244.923,133.791 244.761 C 133.906 244.598,134.000 244.432,134.000 244.391 C 134.000 244.350,134.450 243.571,135.000 242.661 C 135.550 241.750,136.000 240.984,136.000 240.959 C 136.000 240.934,136.400 240.252,136.889 239.444 C 137.378 238.636,137.778 237.961,137.778 237.943 C 137.778 237.924,138.484 236.717,139.348 235.260 C 142.159 230.515,142.333 230.216,142.333 230.117 C 142.333 230.063,142.372 230.002,142.419 229.981 C 142.536 229.931,143.444 228.379,143.444 228.231 C 143.444 228.165,143.486 228.111,143.537 228.111 C 143.587 228.111,143.746 227.861,143.889 227.556 C 144.032 227.250,144.187 227.000,144.234 227.000 C 144.280 227.000,144.354 226.887,144.397 226.750 C 144.440 226.612,144.610 226.300,144.775 226.056 C 144.941 225.811,145.239 225.311,145.437 224.944 C 145.636 224.578,145.839 224.228,145.888 224.167 C 145.938 224.106,146.122 223.806,146.297 223.500 C 146.473 223.194,146.716 222.778,146.836 222.574 C 147.744 221.040,148.222 220.204,148.222 220.155 C 148.222 220.123,148.347 219.932,148.500 219.732 C 148.653 219.532,148.778 219.330,148.778 219.284 C 148.778 219.238,149.053 218.756,149.389 218.213 C 149.725 217.669,150.000 217.197,150.000 217.163 C 150.000 217.130,150.093 216.967,150.207 216.801 C 150.418 216.494,151.369 214.892,151.860 214.016 C 152.009 213.750,152.477 212.960,152.899 212.261 C 153.321 211.562,153.667 210.975,153.667 210.957 C 153.667 210.939,154.067 210.261,154.556 209.451 C 155.044 208.641,155.444 207.960,155.444 207.938 C 155.444 207.371,156.169 206.819,158.360 205.716 C 164.735 202.504,169.624 200.066,170.667 199.577 C 172.523 198.708,173.678 198.155,176.092 196.985 C 177.334 196.382,178.365 195.889,178.383 195.889 C 178.401 195.889,179.260 195.484,180.291 194.989 C 181.323 194.495,182.592 193.888,183.111 193.641 C 183.631 193.394,184.133 193.153,184.227 193.105 C 184.419 193.006,184.538 193.104,186.721 195.167 C 187.497 195.900,188.439 196.791,188.816 197.147 C 189.192 197.503,189.904 198.178,190.398 198.647 C 190.891 199.116,191.591 199.775,191.953 200.110 C 193.142 201.212,194.484 202.473,196.395 204.284 C 197.430 205.266,198.524 206.291,198.824 206.562 C 199.125 206.834,199.603 207.281,199.886 207.556 C 200.169 207.831,201.095 208.706,201.943 209.500 C 202.792 210.294,203.624 211.090,203.793 211.268 C 204.055 211.545,204.125 211.571,204.276 211.446 C 204.452 211.300,211.333 201.041,211.333 200.925 C 211.333 200.891,211.508 200.625,211.722 200.333 C 211.936 200.042,212.111 199.752,212.111 199.689 C 212.111 199.626,212.150 199.557,212.196 199.537 C 212.243 199.517,212.455 199.225,212.667 198.889 C 212.879 198.553,213.091 198.228,213.138 198.167 C 213.433 197.783,214.000 196.877,214.000 196.790 C 214.000 196.732,214.039 196.669,214.087 196.648 C 214.135 196.628,214.471 196.136,214.833 195.556 C 215.196 194.975,215.532 194.483,215.580 194.463 C 215.628 194.443,215.667 194.379,215.667 194.321 C 215.667 194.264,215.843 193.956,216.059 193.636 C 216.274 193.317,216.499 192.981,216.558 192.889 C 216.618 192.797,217.041 192.154,217.500 191.459 C 217.958 190.764,218.333 190.179,218.333 190.158 C 218.333 190.119,218.825 189.355,218.972 189.167 C 219.020 189.106,219.232 188.781,219.444 188.444 C 219.656 188.108,219.868 187.817,219.915 187.796 C 219.962 187.776,220.000 187.712,220.000 187.655 C 220.000 187.552,220.610 186.603,220.957 186.167 C 221.054 186.044,221.183 185.807,221.244 185.639 C 221.305 185.471,221.389 185.333,221.430 185.333 C 221.471 185.333,221.604 185.146,221.725 184.917 C 221.846 184.688,222.036 184.400,222.148 184.278 C 222.260 184.156,222.424 183.919,222.511 183.753 C 222.673 183.443,223.147 182.699,223.310 182.500 C 223.359 182.439,223.498 182.215,223.617 182.003 C 223.736 181.791,223.873 181.566,223.922 181.503 C 224.286 181.033,225.553 179.073,225.610 178.892 C 225.649 178.768,225.717 178.667,225.760 178.667 C 225.803 178.667,225.937 178.479,226.057 178.250 C 226.177 178.021,226.307 177.808,226.346 177.778 C 226.385 177.747,226.514 177.561,226.634 177.363 L 226.851 177.004 227.778 177.863 C 228.288 178.336,228.993 178.997,229.343 179.333 C 230.560 180.500,232.849 182.636,233.343 183.068 C 233.490 183.196,233.693 183.396,233.794 183.512 C 233.894 183.628,234.388 184.097,234.892 184.556 C 235.395 185.014,236.093 185.664,236.442 186.000 C 236.792 186.336,237.697 187.186,238.454 187.889 C 240.250 189.557,241.120 190.375,241.823 191.056 C 242.139 191.361,243.045 192.211,243.836 192.944 C 245.320 194.320,246.293 195.234,247.503 196.389 C 248.397 197.243,249.137 197.937,251.056 199.722 C 252.561 201.122,252.992 201.529,254.167 202.659 C 254.472 202.953,255.474 203.888,256.394 204.736 C 258.035 206.250,258.601 206.781,259.876 208.000 C 263.260 211.236,262.808 210.954,264.833 211.095 C 270.361 211.483,277.651 213.129,284.111 215.448 C 286.220 216.205,286.272 216.208,285.871 215.556 C 285.740 215.342,285.482 214.892,285.298 214.556 C 285.114 214.219,284.932 213.919,284.894 213.889 C 284.855 213.858,284.529 213.308,284.169 212.667 C 283.808 212.025,283.373 211.291,283.201 211.036 C 283.029 210.780,282.889 210.538,282.889 210.497 C 282.889 210.456,282.778 210.268,282.644 210.079 C 282.509 209.889,282.318 209.581,282.219 209.395 C 282.121 209.208,281.924 208.856,281.781 208.611 C 281.639 208.367,281.372 207.892,281.188 207.556 C 281.003 207.219,280.822 206.919,280.785 206.889 C 280.747 206.858,280.593 206.596,280.442 206.306 C 280.291 206.015,280.129 205.778,280.084 205.778 C 280.038 205.778,280.000 205.727,280.000 205.665 C 280.000 205.602,279.800 205.222,279.556 204.820 C 279.311 204.418,279.111 204.064,279.111 204.034 C 279.111 204.003,278.999 203.821,278.861 203.628 C 278.724 203.435,278.536 203.140,278.445 202.973 C 277.760 201.721,277.630 201.494,277.569 201.444 C 277.531 201.414,277.400 201.193,277.278 200.953 C 277.156 200.713,277.006 200.462,276.944 200.395 C 276.883 200.328,276.709 200.037,276.558 199.748 C 276.406 199.459,276.244 199.222,276.197 199.222 C 276.150 199.222,276.111 199.164,276.111 199.093 C 276.111 198.988,275.630 198.131,274.998 197.111 C 274.752 196.713,274.014 195.459,273.757 195.000 C 273.233 194.067,273.030 193.724,272.459 192.797 C 272.146 192.289,271.889 191.853,271.889 191.829 C 271.889 191.806,271.614 191.328,271.278 190.768 C 270.942 190.208,270.667 189.723,270.667 189.691 C 270.667 189.658,270.542 189.468,270.389 189.268 C 270.236 189.068,270.111 188.872,270.111 188.833 C 270.111 188.794,269.877 188.378,269.590 187.909 C 269.304 187.440,268.976 186.881,268.862 186.667 C 268.748 186.453,268.485 186.003,268.277 185.667 C 268.070 185.331,267.769 184.814,267.610 184.519 C 267.451 184.224,267.110 183.649,266.852 183.241 C 266.594 182.834,266.322 182.375,266.248 182.222 C 266.109 181.937,266.053 181.843,265.528 181.022 C 265.360 180.759,265.222 180.517,265.222 180.483 C 265.222 180.449,265.072 180.199,264.889 179.927 C 264.706 179.656,264.556 179.410,264.556 179.381 C 264.556 179.339,263.314 177.217,262.774 176.333 C 262.340 175.625,261.444 174.096,261.444 174.064 C 261.444 174.042,261.050 173.372,260.567 172.575 C 260.084 171.777,259.672 171.082,259.650 171.031 C 259.580 170.864,258.311 168.731,258.097 168.421 C 257.982 168.256,257.889 168.095,257.889 168.064 C 257.889 168.033,257.614 167.554,257.278 167.000 C 256.942 166.446,256.667 165.956,256.667 165.912 C 256.667 165.869,256.492 165.586,256.278 165.286 C 256.064 164.985,255.889 164.700,255.889 164.653 C 255.889 164.605,255.745 164.352,255.570 164.089 C 255.394 163.826,255.216 163.499,255.173 163.361 C 255.131 163.224,255.054 163.111,255.003 163.111 C 254.952 163.111,254.857 162.974,254.791 162.806 C 254.725 162.637,254.472 162.175,254.229 161.778 C 253.986 161.381,253.679 160.859,253.547 160.618 C 253.416 160.377,253.238 160.111,253.154 160.027 C 253.069 159.942,253.000 159.821,253.000 159.758 C 253.000 159.695,252.860 159.436,252.689 159.183 C 252.518 158.929,252.349 158.647,252.314 158.556 C 252.278 158.464,251.887 157.789,251.445 157.056 C 251.003 156.322,250.541 155.547,250.419 155.333 C 249.784 154.222,249.273 153.348,249.055 153.000 C 248.846 152.668,248.478 152.049,247.306 150.056 C 247.198 149.872,247.026 149.560,246.923 149.361 C 246.821 149.162,246.696 149.000,246.646 149.000 C 246.596 149.000,246.556 148.949,246.556 148.887 C 246.556 148.825,246.356 148.445,246.111 148.042 C 245.867 147.640,245.667 147.294,245.667 147.274 C 245.667 147.254,245.217 146.486,244.667 145.568 C 244.117 144.649,243.667 143.873,243.667 143.843 C 243.667 143.812,243.537 143.598,243.378 143.366 C 243.220 143.134,242.882 142.577,242.628 142.128 C 242.374 141.679,242.042 141.095,241.889 140.831 C 241.736 140.566,241.492 140.134,241.346 139.869 C 241.200 139.605,241.046 139.364,241.004 139.333 C 240.961 139.303,240.809 139.040,240.666 138.750 C 240.522 138.460,240.364 138.222,240.314 138.222 C 240.263 138.222,240.222 138.177,240.222 138.121 C 240.222 137.979,239.308 136.397,239.200 136.352 C 239.151 136.331,239.111 136.265,239.111 136.204 C 239.111 136.143,238.793 135.559,238.404 134.907 C 238.016 134.256,237.409 133.222,237.057 132.611 C 236.704 132.000,236.329 131.373,236.222 131.219 C 236.049 130.966,235.798 130.527,235.344 129.680 C 235.258 129.520,235.157 129.364,235.119 129.333 C 235.081 129.303,234.926 129.040,234.775 128.750 C 234.624 128.460,234.463 128.222,234.417 128.222 C 234.371 128.222,234.333 128.171,234.333 128.109 C 234.333 128.047,234.133 127.667,233.889 127.264 C 233.644 126.862,233.444 126.516,233.444 126.495 C 233.444 126.474,232.994 125.710,232.444 124.796 C 231.894 123.882,231.444 123.109,231.444 123.077 C 231.444 123.024,230.791 121.985,230.589 121.716 C 230.540 121.651,230.407 121.426,230.294 121.216 C 229.752 120.209,229.395 119.585,229.206 119.316 C 229.093 119.154,229.000 118.974,229.000 118.917 C 229.000 118.859,228.900 118.696,228.778 118.556 C 228.656 118.415,228.556 118.232,228.556 118.150 C 228.556 118.067,228.511 118.000,228.456 118.000 C 228.402 118.000,228.326 117.875,228.288 117.722 C 228.249 117.569,228.169 117.444,228.109 117.444 C 228.049 117.444,228.000 117.399,228.000 117.343 C 228.000 117.241,227.120 115.658,227.006 115.556 C 226.972 115.525,226.823 115.275,226.675 115.000 C 226.527 114.725,226.377 114.475,226.342 114.444 C 226.307 114.414,226.157 114.164,226.008 113.889 C 225.860 113.614,225.710 113.364,225.675 113.333 C 225.640 113.303,225.536 113.128,225.445 112.944 C 225.298 112.651,224.281 110.894,223.996 110.444 C 223.938 110.353,223.764 110.053,223.609 109.778 C 223.454 109.503,223.230 109.128,223.111 108.944 C 222.992 108.761,222.762 108.361,222.600 108.056 C 222.437 107.750,222.273 107.475,222.235 107.444 C 222.198 107.414,222.045 107.164,221.897 106.889 C 221.749 106.614,221.599 106.364,221.564 106.333 C 221.529 106.303,221.405 106.103,221.290 105.889 C 221.174 105.675,220.624 104.732,220.068 103.794 C 219.511 102.856,218.912 101.831,218.737 101.516 C 218.562 101.202,218.382 100.919,218.338 100.889 C 218.293 100.858,218.223 100.696,218.182 100.528 C 218.141 100.360,218.058 100.222,217.998 100.222 C 217.938 100.222,217.889 100.171,217.889 100.109 C 217.889 100.047,217.753 99.784,217.587 99.526 C 217.421 99.267,217.165 98.831,217.018 98.556 C 216.871 98.281,216.688 97.981,216.611 97.889 C 216.534 97.797,216.436 97.610,216.395 97.472 C 216.353 97.335,216.278 97.222,216.228 97.222 C 216.178 97.222,216.107 97.135,216.070 97.028 C 216.033 96.921,215.896 96.658,215.766 96.444 C 215.636 96.231,215.404 95.818,215.252 95.527 C 215.100 95.236,214.931 94.971,214.876 94.937 C 214.822 94.903,214.678 94.658,214.557 94.392 C 214.436 94.126,214.273 93.841,214.196 93.759 C 214.119 93.678,213.934 93.386,213.786 93.111 C 213.312 92.233,213.281 92.182,213.083 91.957 C 212.976 91.835,212.889 91.689,212.889 91.632 C 212.889 91.545,212.148 90.237,211.775 89.667 C 211.715 89.575,211.621 89.400,211.566 89.278 C 211.512 89.156,211.337 88.866,211.178 88.634 C 211.019 88.402,210.889 88.171,210.889 88.120 C 210.889 88.069,210.818 87.969,210.732 87.897 C 210.645 87.825,210.465 87.532,210.330 87.244 C 210.032 86.609,209.667 86.316,209.667 86.713 M64.605 92.972 C 64.704 93.237,72.557 108.483,72.630 108.554 C 72.718 108.639,73.444 107.767,73.444 107.577 C 73.444 107.487,73.019 106.601,72.500 105.608 C 71.981 104.615,71.556 103.744,71.556 103.673 C 71.556 103.602,72.689 102.084,74.074 100.299 C 75.460 98.515,76.598 97.046,76.605 97.034 C 76.611 97.023,77.577 97.254,78.750 97.549 L 80.884 98.084 81.288 97.592 C 81.510 97.321,81.664 97.071,81.630 97.038 C 81.560 96.967,64.912 92.786,64.683 92.781 C 64.585 92.779,64.557 92.846,64.605 92.972 M333.488 94.484 C 331.908 95.004,331.000 96.428,331.000 98.389 C 331.000 99.556,331.163 100.077,332.173 102.135 C 333.739 105.329,333.693 107.025,332.016 107.881 C 328.776 109.533,324.242 103.576,326.623 100.794 C 327.097 100.240,327.105 100.279,326.438 99.941 L 325.877 99.657 325.662 99.912 C 324.757 100.984,324.510 103.322,325.134 104.904 C 327.330 110.468,334.148 111.022,334.524 105.667 C 334.608 104.478,334.378 103.718,333.246 101.447 L 332.278 99.505 332.278 98.447 C 332.278 96.071,333.779 95.034,336.000 95.876 C 338.928 96.988,340.552 101.347,338.719 103.180 C 338.387 103.512,338.409 103.543,339.203 103.851 L 339.684 104.037 339.950 103.713 C 342.829 100.207,337.824 93.058,333.488 94.484 M75.199 96.717 C 75.250 96.768,70.977 102.317,70.880 102.327 C 70.844 102.330,70.024 100.796,69.057 98.917 C 68.090 97.037,67.180 95.294,67.036 95.042 L 66.773 94.584 70.964 95.628 C 73.269 96.203,75.174 96.693,75.199 96.717 M60.998 115.806 C 60.569 116.552,59.805 117.828,59.278 118.677 C 58.694 119.616,58.449 120.069,58.447 120.213 C 58.446 120.300,58.357 120.466,58.250 120.581 C 58.051 120.795,57.619 121.602,56.738 123.404 C 56.464 123.963,56.185 124.454,56.117 124.496 C 55.969 124.588,54.935 126.644,54.104 128.500 C 53.776 129.233,53.405 129.985,53.281 130.169 C 53.157 130.354,52.839 131.004,52.575 131.614 C 52.310 132.223,51.898 133.103,51.658 133.569 C 51.418 134.035,51.222 134.479,51.222 134.556 C 51.222 134.633,51.044 135.045,50.827 135.471 C 50.610 135.898,50.303 136.654,50.145 137.151 C 49.987 137.649,49.786 138.138,49.699 138.239 C 49.612 138.340,49.315 139.065,49.040 139.850 C 48.081 142.584,47.993 142.819,47.879 142.956 C 47.816 143.032,47.613 143.510,47.428 144.019 C 46.503 146.566,45.968 148.109,45.838 148.611 C 45.759 148.917,45.594 149.467,45.471 149.833 C 45.349 150.200,45.139 150.875,45.006 151.333 C 44.873 151.792,44.667 152.392,44.548 152.667 C 44.430 152.942,44.261 153.492,44.175 153.889 C 44.088 154.286,43.934 154.886,43.833 155.222 C 43.731 155.558,43.580 156.083,43.498 156.389 C 43.343 156.960,43.134 157.671,42.822 158.694 C 42.724 159.015,42.526 159.778,42.382 160.389 C 41.952 162.219,41.772 162.920,41.607 163.414 C 41.520 163.672,41.477 163.955,41.510 164.042 C 41.544 164.130,41.494 164.431,41.398 164.711 C 41.303 164.991,41.048 166.184,40.832 167.360 C 40.616 168.537,40.388 169.629,40.325 169.786 C 40.263 169.944,40.208 170.194,40.203 170.342 C 40.199 170.490,40.005 171.736,39.772 173.111 C 39.539 174.486,39.217 176.511,39.058 177.611 C 38.898 178.711,38.716 179.936,38.653 180.333 C 38.590 180.731,38.493 181.456,38.439 181.944 C 38.384 182.433,38.285 183.308,38.219 183.889 C 37.973 186.056,37.703 189.710,37.582 192.500 C 37.475 194.955,37.476 206.603,37.583 209.111 C 37.735 212.686,38.100 217.026,38.505 220.056 C 38.603 220.789,38.701 221.589,38.723 221.833 C 38.769 222.344,39.039 224.018,39.263 225.190 C 39.348 225.630,39.395 226.012,39.369 226.038 C 39.343 226.065,39.524 227.196,39.772 228.553 C 40.020 229.909,40.197 231.061,40.166 231.113 C 40.134 231.164,40.181 231.422,40.269 231.686 C 40.358 231.950,40.586 232.992,40.776 234.000 C 40.966 235.008,41.221 236.204,41.343 236.657 C 41.465 237.111,41.539 237.550,41.507 237.633 C 41.475 237.716,41.520 237.995,41.607 238.253 C 41.761 238.714,41.865 239.109,42.386 241.222 C 42.529 241.803,42.729 242.553,42.830 242.889 C 42.931 243.225,43.082 243.750,43.164 244.056 C 43.247 244.361,43.397 244.886,43.498 245.222 C 43.740 246.032,43.977 246.906,44.175 247.722 C 44.264 248.089,44.433 248.614,44.550 248.889 C 44.667 249.164,44.846 249.689,44.947 250.056 C 45.048 250.422,45.273 251.172,45.447 251.722 C 45.622 252.272,45.818 252.972,45.883 253.278 C 45.948 253.583,46.096 254.058,46.211 254.333 C 46.326 254.608,46.496 255.033,46.589 255.278 C 46.681 255.522,46.852 255.972,46.969 256.278 L 47.183 256.833 48.110 256.866 C 48.776 256.889,49.062 256.858,49.128 256.755 C 49.262 256.543,49.242 256.444,49.066 256.444 C 48.965 256.444,48.930 256.367,48.967 256.224 C 49.003 256.088,48.961 255.978,48.858 255.939 C 48.762 255.902,48.714 255.789,48.744 255.672 C 48.773 255.561,48.743 255.436,48.676 255.395 C 48.610 255.354,48.556 255.195,48.556 255.042 C 48.556 254.886,48.507 254.795,48.444 254.833 C 48.381 254.872,48.333 254.779,48.333 254.618 C 48.333 254.461,48.288 254.333,48.233 254.333 C 48.177 254.333,48.098 254.083,48.056 253.778 C 48.014 253.472,47.934 253.222,47.878 253.222 C 47.823 253.222,47.778 253.122,47.778 253.000 C 47.778 252.878,47.722 252.778,47.653 252.778 C 47.573 252.778,47.552 252.656,47.596 252.439 C 47.638 252.229,47.622 252.126,47.554 252.168 C 47.493 252.205,47.444 252.109,47.444 251.951 C 47.444 251.795,47.396 251.667,47.337 251.667 C 47.278 251.667,47.197 251.418,47.156 251.113 C 47.116 250.809,47.039 250.587,46.986 250.620 C 46.933 250.653,46.889 250.555,46.889 250.402 C 46.889 250.249,46.846 250.097,46.793 250.065 C 46.740 250.032,46.721 249.879,46.750 249.725 C 46.782 249.560,46.752 249.444,46.680 249.444 C 46.611 249.444,46.556 249.347,46.556 249.229 C 46.556 249.110,46.508 248.984,46.451 248.948 C 46.393 248.913,46.313 248.660,46.272 248.386 C 46.231 248.113,46.152 247.889,46.096 247.889 C 46.041 247.889,46.027 247.764,46.065 247.611 C 46.105 247.454,46.087 247.333,46.025 247.333 C 45.964 247.333,45.879 247.096,45.836 246.806 C 45.792 246.515,45.706 246.216,45.644 246.140 C 45.582 246.065,45.560 245.927,45.595 245.835 C 45.631 245.742,45.611 245.667,45.552 245.667 C 45.493 245.667,45.444 245.517,45.444 245.333 C 45.444 245.150,45.389 245.000,45.321 245.000 C 45.245 245.000,45.225 244.893,45.268 244.722 C 45.306 244.569,45.290 244.444,45.231 244.444 C 45.173 244.444,45.091 244.219,45.050 243.944 C 45.009 243.669,44.924 243.444,44.862 243.444 C 44.797 243.444,44.778 243.306,44.817 243.111 C 44.854 242.923,44.836 242.778,44.775 242.778 C 44.715 242.778,44.667 242.681,44.667 242.562 C 44.667 242.443,44.621 242.318,44.566 242.284 C 44.511 242.250,44.490 242.128,44.520 242.012 C 44.550 241.897,44.521 241.769,44.454 241.728 C 44.388 241.687,44.333 241.507,44.333 241.327 C 44.333 241.147,44.278 241.000,44.210 241.000 C 44.133 241.000,44.114 240.892,44.159 240.713 C 44.201 240.545,44.188 240.452,44.127 240.490 C 44.069 240.526,43.961 240.139,43.883 239.615 C 43.806 239.098,43.710 238.696,43.669 238.721 C 43.628 238.746,43.504 238.282,43.394 237.689 C 43.284 237.096,43.145 236.550,43.086 236.476 C 43.027 236.401,42.971 236.093,42.961 235.791 C 42.952 235.488,42.921 235.264,42.893 235.292 C 42.843 235.342,42.647 234.402,42.231 232.111 C 42.115 231.469,41.813 229.830,41.561 228.469 C 41.309 227.107,41.125 225.956,41.154 225.910 C 41.182 225.864,41.134 225.488,41.047 225.073 C 40.961 224.659,40.836 223.861,40.771 223.299 C 40.550 221.389,40.431 220.390,40.333 219.611 C 39.427 212.391,39.175 207.501,39.271 199.000 C 39.309 195.608,39.359 192.622,39.381 192.363 C 39.403 192.105,39.454 191.305,39.493 190.586 C 39.533 189.866,39.608 188.828,39.660 188.278 C 39.713 187.728,39.757 187.203,39.759 187.111 C 39.767 186.737,39.889 185.564,39.995 184.833 C 40.057 184.406,40.122 183.743,40.138 183.362 C 40.154 182.980,40.197 182.668,40.234 182.667 C 40.271 182.667,40.334 182.304,40.373 181.861 C 40.413 181.418,40.496 180.631,40.558 180.111 C 40.621 179.592,40.696 178.921,40.725 178.620 C 40.754 178.319,40.857 177.619,40.955 177.065 C 41.053 176.510,41.135 175.931,41.137 175.778 C 41.141 175.522,41.528 173.260,41.950 171.027 C 42.045 170.522,42.092 170.059,42.055 169.999 C 42.017 169.938,42.046 169.889,42.117 169.889 C 42.199 169.889,42.229 169.764,42.199 169.556 C 42.172 169.372,42.197 169.222,42.254 169.222 C 42.312 169.222,42.335 169.097,42.306 168.944 C 42.277 168.792,42.286 168.667,42.327 168.667 C 42.408 168.667,42.778 166.854,42.778 166.456 C 42.778 166.320,42.815 166.232,42.861 166.259 C 42.907 166.287,42.954 166.057,42.966 165.749 C 42.977 165.440,43.047 165.151,43.120 165.105 C 43.194 165.060,43.227 164.918,43.193 164.789 C 43.159 164.661,43.169 164.556,43.215 164.556 C 43.260 164.556,43.362 164.193,43.440 163.750 C 43.518 163.307,43.620 162.894,43.668 162.833 C 43.716 162.772,43.817 162.336,43.892 161.864 C 43.968 161.392,44.066 161.028,44.110 161.055 C 44.154 161.082,44.167 160.981,44.138 160.830 C 44.107 160.671,44.137 160.556,44.209 160.556 C 44.278 160.556,44.333 160.409,44.333 160.229 C 44.333 160.049,44.388 159.868,44.454 159.827 C 44.521 159.786,44.550 159.658,44.520 159.543 C 44.490 159.428,44.511 159.333,44.566 159.333 C 44.621 159.333,44.667 159.236,44.667 159.118 C 44.667 158.999,44.712 158.874,44.767 158.840 C 44.823 158.806,44.842 158.677,44.810 158.555 C 44.778 158.432,44.813 158.258,44.889 158.167 C 44.964 158.076,45.000 157.901,44.968 157.778 C 44.936 157.656,44.955 157.556,45.010 157.556 C 45.066 157.556,45.111 157.456,45.111 157.333 C 45.111 157.211,45.162 157.111,45.224 157.111 C 45.290 157.111,45.308 156.994,45.268 156.833 C 45.225 156.662,45.245 156.556,45.321 156.556 C 45.389 156.556,45.444 156.431,45.444 156.278 C 45.444 156.125,45.495 156.000,45.558 156.000 C 45.623 156.000,45.641 155.882,45.601 155.722 C 45.555 155.539,45.578 155.444,45.668 155.444 C 45.753 155.444,45.784 155.341,45.751 155.167 C 45.721 155.014,45.741 154.889,45.793 154.889 C 45.846 154.889,45.889 154.767,45.889 154.618 C 45.889 154.468,45.936 154.318,45.993 154.282 C 46.050 154.247,46.098 154.131,46.100 154.026 C 46.106 153.638,46.373 152.556,46.463 152.556 C 46.514 152.556,46.556 152.456,46.556 152.333 C 46.556 152.211,46.611 152.111,46.680 152.111 C 46.752 152.111,46.782 151.995,46.751 151.833 C 46.721 151.681,46.741 151.556,46.793 151.556 C 46.846 151.556,46.889 151.431,46.889 151.278 C 46.889 151.125,46.945 151.000,47.013 151.000 C 47.085 151.000,47.115 150.884,47.084 150.722 C 47.050 150.544,47.081 150.444,47.172 150.444 C 47.258 150.444,47.290 150.358,47.254 150.222 C 47.222 150.100,47.249 150.000,47.312 150.000 C 47.376 150.000,47.463 149.725,47.505 149.389 C 47.547 149.053,47.625 148.778,47.679 148.778 C 47.734 148.778,47.778 148.678,47.778 148.556 C 47.778 148.433,47.834 148.333,47.902 148.333 C 47.974 148.333,48.004 148.218,47.973 148.056 C 47.944 147.903,47.963 147.778,48.015 147.778 C 48.068 147.778,48.111 147.653,48.111 147.500 C 48.111 147.347,48.161 147.222,48.222 147.222 C 48.283 147.222,48.333 147.122,48.333 147.000 C 48.333 146.878,48.389 146.778,48.457 146.778 C 48.529 146.778,48.560 146.663,48.529 146.506 C 48.496 146.331,48.536 146.211,48.640 146.171 C 48.739 146.133,48.780 146.021,48.745 145.888 C 48.713 145.766,48.734 145.667,48.791 145.667 C 48.936 145.667,49.150 145.106,49.120 144.806 C 49.106 144.668,49.155 144.556,49.227 144.556 C 49.308 144.556,49.339 144.448,49.306 144.278 C 49.269 144.083,49.302 144.000,49.417 144.000 C 49.527 144.000,49.562 143.926,49.523 143.778 C 49.491 143.656,49.511 143.556,49.566 143.556 C 49.621 143.556,49.667 143.425,49.667 143.266 C 49.667 143.069,49.714 142.995,49.816 143.034 C 49.923 143.075,49.951 143.015,49.914 142.823 C 49.882 142.657,49.915 142.556,50.000 142.556 C 50.086 142.556,50.117 142.453,50.084 142.278 C 50.047 142.083,50.080 142.000,50.195 142.000 C 50.305 142.000,50.340 141.926,50.301 141.778 C 50.269 141.656,50.288 141.556,50.344 141.556 C 50.399 141.556,50.444 141.431,50.444 141.278 C 50.444 141.113,50.508 141.000,50.601 141.000 C 50.699 141.000,50.737 140.922,50.702 140.790 C 50.672 140.675,50.702 140.547,50.768 140.506 C 50.835 140.465,50.889 140.334,50.889 140.216 C 50.889 140.097,50.945 140.000,51.013 140.000 C 51.085 140.000,51.115 139.884,51.084 139.722 C 51.047 139.527,51.080 139.444,51.195 139.444 C 51.305 139.444,51.340 139.370,51.301 139.222 C 51.269 139.100,51.288 139.000,51.344 139.000 C 51.399 139.000,51.444 138.870,51.444 138.710 C 51.444 138.497,51.489 138.438,51.612 138.485 C 51.744 138.536,51.766 138.490,51.712 138.275 C 51.669 138.106,51.690 138.000,51.766 138.000 C 51.833 138.000,51.889 137.900,51.889 137.778 C 51.889 137.656,51.939 137.556,52.000 137.556 C 52.061 137.556,52.111 137.456,52.111 137.333 C 52.111 137.211,52.161 137.111,52.222 137.111 C 52.283 137.111,52.333 136.986,52.333 136.833 C 52.333 136.681,52.383 136.556,52.444 136.556 C 52.506 136.556,52.556 136.431,52.556 136.278 C 52.556 136.125,52.611 136.000,52.680 136.000 C 52.749 136.000,52.778 135.902,52.746 135.778 C 52.706 135.627,52.742 135.556,52.857 135.556 C 52.977 135.556,53.011 135.476,52.973 135.278 C 52.936 135.083,52.969 135.000,53.084 135.000 C 53.193 135.000,53.229 134.926,53.190 134.778 C 53.151 134.627,53.187 134.556,53.301 134.556 C 53.416 134.556,53.452 134.484,53.412 134.333 C 53.373 134.183,53.409 134.111,53.523 134.111 C 53.638 134.111,53.674 134.039,53.634 133.889 C 53.595 133.739,53.631 133.667,53.746 133.667 C 53.860 133.667,53.896 133.595,53.857 133.444 C 53.817 133.294,53.853 133.222,53.968 133.222 C 54.082 133.222,54.118 133.150,54.079 133.000 C 54.041 132.856,54.076 132.778,54.177 132.778 C 54.263 132.778,54.333 132.710,54.333 132.628 C 54.333 132.546,54.419 132.308,54.524 132.100 C 54.628 131.892,54.700 131.610,54.682 131.472 C 54.665 131.335,54.704 131.222,54.770 131.222 C 54.835 131.222,54.889 131.122,54.889 131.000 C 54.889 130.878,54.939 130.778,55.000 130.778 C 55.061 130.778,55.111 130.678,55.111 130.556 C 55.111 130.433,55.161 130.333,55.222 130.333 C 55.283 130.333,55.333 130.233,55.333 130.111 C 55.333 129.989,55.383 129.889,55.444 129.889 C 55.506 129.889,55.556 129.789,55.556 129.667 C 55.556 129.544,55.606 129.444,55.667 129.444 C 55.728 129.444,55.778 129.344,55.778 129.222 C 55.778 129.100,55.828 129.000,55.889 129.000 C 55.950 129.000,56.000 128.900,56.000 128.778 C 56.000 128.656,56.070 128.556,56.156 128.556 C 56.258 128.556,56.292 128.478,56.254 128.333 C 56.215 128.183,56.251 128.111,56.366 128.111 C 56.480 128.111,56.516 128.039,56.477 127.889 C 56.438 127.741,56.473 127.667,56.583 127.667 C 56.698 127.667,56.731 127.584,56.694 127.387 C 56.653 127.173,56.679 127.123,56.806 127.172 C 56.935 127.221,56.959 127.169,56.914 126.933 C 56.869 126.697,56.892 126.644,57.022 126.694 C 57.150 126.743,57.175 126.692,57.133 126.472 C 57.087 126.234,57.111 126.199,57.275 126.261 C 57.431 126.321,57.459 126.291,57.413 126.113 C 57.373 125.961,57.408 125.889,57.523 125.889 C 57.638 125.889,57.674 125.817,57.634 125.667 C 57.595 125.516,57.631 125.444,57.746 125.444 C 57.860 125.444,57.896 125.373,57.857 125.222 C 57.817 125.072,57.853 125.000,57.968 125.000 C 58.083 125.000,58.118 124.928,58.078 124.775 C 58.035 124.610,58.068 124.558,58.204 124.581 C 58.339 124.603,58.379 124.543,58.354 124.359 C 58.331 124.196,58.370 124.117,58.465 124.136 C 58.559 124.156,58.599 124.077,58.576 123.914 C 58.553 123.751,58.593 123.672,58.687 123.692 C 58.772 123.710,58.820 123.641,58.801 123.528 C 58.783 123.421,58.820 123.333,58.884 123.333 C 58.948 123.333,59.000 123.208,59.000 123.056 C 59.000 122.903,59.050 122.778,59.111 122.778 C 59.172 122.778,59.222 122.703,59.222 122.611 C 59.222 122.519,59.301 122.444,59.396 122.444 C 59.520 122.444,59.550 122.380,59.500 122.222 C 59.449 122.062,59.480 122.000,59.611 122.000 C 59.742 122.000,59.773 121.938,59.722 121.778 C 59.671 121.616,59.702 121.556,59.838 121.556 C 59.957 121.556,60.001 121.496,59.960 121.389 C 59.921 121.287,59.960 121.222,60.059 121.222 C 60.149 121.222,60.222 121.122,60.222 121.000 C 60.222 120.878,60.278 120.778,60.346 120.778 C 60.416 120.778,60.445 120.680,60.412 120.556 C 60.374 120.411,60.409 120.333,60.510 120.333 C 60.596 120.333,60.667 120.258,60.667 120.167 C 60.667 120.075,60.717 120.000,60.778 120.000 C 60.839 120.000,60.889 119.900,60.889 119.778 C 60.889 119.656,60.939 119.556,61.000 119.556 C 61.061 119.556,61.111 119.456,61.111 119.333 C 61.111 119.211,61.161 119.111,61.222 119.111 C 61.283 119.111,61.333 119.036,61.333 118.944 C 61.333 118.853,61.383 118.778,61.444 118.778 C 61.506 118.778,61.556 118.654,61.556 118.503 C 61.556 118.294,61.599 118.246,61.740 118.300 C 61.886 118.356,61.912 118.321,61.862 118.130 C 61.817 117.961,61.849 117.889,61.968 117.889 C 62.079 117.889,62.118 117.817,62.083 117.681 C 62.041 117.520,62.076 117.485,62.239 117.528 C 62.423 117.576,62.436 117.547,62.343 117.304 C 62.248 117.053,62.261 117.031,62.471 117.086 C 62.654 117.134,62.689 117.107,62.633 116.962 C 62.586 116.838,62.620 116.778,62.739 116.778 C 62.860 116.778,62.897 116.709,62.857 116.556 C 62.817 116.406,62.853 116.333,62.967 116.333 C 63.071 116.333,63.110 116.270,63.071 116.167 C 63.031 116.062,63.072 116.000,63.183 116.000 C 63.305 116.000,63.341 115.931,63.301 115.778 C 63.263 115.633,63.298 115.556,63.399 115.556 C 63.485 115.556,63.556 115.481,63.556 115.389 C 63.556 115.297,63.606 115.222,63.667 115.222 C 63.728 115.222,63.778 115.172,63.778 115.111 C 63.778 115.044,63.317 115.000,62.619 115.000 L 61.460 115.000 60.998 115.806 M337.778 115.111 C 337.778 115.172,337.828 115.222,337.889 115.222 C 337.950 115.222,338.000 115.297,338.000 115.389 C 338.000 115.481,338.050 115.556,338.111 115.556 C 338.172 115.556,338.222 115.656,338.222 115.778 C 338.222 115.900,338.272 116.000,338.333 116.000 C 338.394 116.000,338.444 116.075,338.444 116.167 C 338.444 116.258,338.494 116.333,338.556 116.333 C 338.617 116.333,338.667 116.439,338.667 116.567 C 338.667 116.721,338.719 116.781,338.821 116.742 C 338.932 116.700,338.958 116.748,338.914 116.916 C 338.865 117.104,338.891 117.134,339.050 117.073 C 339.217 117.009,339.236 117.042,339.173 117.291 C 339.114 117.526,339.133 117.571,339.272 117.518 C 339.392 117.472,339.444 117.518,339.444 117.670 C 339.444 117.790,339.500 117.889,339.569 117.889 C 339.639 117.889,339.667 117.988,339.632 118.120 C 339.588 118.289,339.615 118.334,339.730 118.290 C 339.841 118.247,339.889 118.312,339.889 118.503 C 339.889 118.654,339.939 118.778,340.000 118.778 C 340.061 118.778,340.111 118.853,340.111 118.944 C 340.111 119.036,340.161 119.111,340.222 119.111 C 340.283 119.111,340.333 119.211,340.333 119.333 C 340.333 119.456,340.383 119.556,340.444 119.556 C 340.506 119.556,340.556 119.656,340.556 119.778 C 340.556 119.900,340.606 120.000,340.667 120.000 C 340.728 120.000,340.778 120.075,340.778 120.167 C 340.778 120.258,340.848 120.333,340.934 120.333 C 341.040 120.333,341.070 120.411,341.027 120.574 C 340.979 120.757,341.005 120.800,341.131 120.751 C 341.261 120.701,341.286 120.751,341.244 120.973 C 341.200 121.204,341.225 121.245,341.372 121.188 C 341.504 121.138,341.556 121.179,341.556 121.337 C 341.556 121.457,341.606 121.556,341.667 121.556 C 341.728 121.556,341.778 121.659,341.778 121.784 C 341.778 121.910,341.828 121.982,341.889 121.944 C 341.952 121.905,342.000 122.003,342.000 122.172 C 342.000 122.379,342.046 122.450,342.154 122.409 C 342.262 122.368,342.291 122.414,342.252 122.564 C 342.221 122.682,342.252 122.778,342.320 122.778 C 342.389 122.778,342.444 122.879,342.444 123.003 C 342.444 123.128,342.521 123.259,342.614 123.294 C 342.721 123.335,342.760 123.437,342.718 123.568 C 342.667 123.731,342.694 123.760,342.843 123.703 C 343.003 123.642,343.021 123.677,342.960 123.923 C 342.899 124.166,342.918 124.204,343.071 124.145 C 343.224 124.087,343.243 124.125,343.182 124.368 C 343.123 124.601,343.143 124.648,343.276 124.596 C 343.394 124.551,343.444 124.603,343.444 124.766 C 343.444 124.895,343.494 125.000,343.556 125.000 C 343.617 125.000,343.667 125.100,343.667 125.222 C 343.667 125.344,343.717 125.444,343.778 125.444 C 343.839 125.444,343.889 125.544,343.889 125.667 C 343.889 125.789,343.945 125.889,344.013 125.889 C 344.081 125.889,344.112 125.985,344.081 126.103 C 344.040 126.261,344.070 126.300,344.196 126.251 C 344.329 126.200,344.354 126.248,344.312 126.472 C 344.269 126.692,344.295 126.743,344.423 126.694 C 344.552 126.644,344.576 126.697,344.531 126.933 C 344.487 127.158,344.511 127.220,344.625 127.177 C 344.729 127.137,344.778 127.206,344.778 127.392 C 344.778 127.543,344.834 127.667,344.902 127.667 C 344.971 127.667,345.000 127.765,344.968 127.889 C 344.930 128.033,344.964 128.111,345.066 128.111 C 345.152 128.111,345.222 128.211,345.222 128.333 C 345.222 128.456,345.272 128.556,345.333 128.556 C 345.394 128.556,345.444 128.656,345.444 128.778 C 345.444 128.900,345.494 129.000,345.556 129.000 C 345.617 129.000,345.667 129.100,345.667 129.222 C 345.667 129.344,345.717 129.444,345.778 129.444 C 345.839 129.444,345.889 129.544,345.889 129.667 C 345.889 129.789,345.939 129.889,346.000 129.889 C 346.061 129.889,346.111 129.989,346.111 130.111 C 346.111 130.233,346.161 130.333,346.222 130.333 C 346.283 130.333,346.333 130.433,346.333 130.556 C 346.333 130.678,346.404 130.778,346.490 130.778 C 346.591 130.778,346.626 130.856,346.588 131.000 C 346.555 131.124,346.584 131.222,346.654 131.222 C 346.722 131.222,346.778 131.375,346.778 131.562 C 346.778 131.760,346.824 131.873,346.889 131.833 C 346.952 131.794,347.000 131.888,347.000 132.049 C 347.000 132.205,347.050 132.333,347.111 132.333 C 347.172 132.333,347.222 132.433,347.222 132.556 C 347.222 132.678,347.272 132.778,347.333 132.778 C 347.394 132.778,347.444 132.878,347.444 133.000 C 347.444 133.122,347.494 133.222,347.556 133.222 C 347.617 133.222,347.667 133.322,347.667 133.444 C 347.667 133.567,347.717 133.667,347.778 133.667 C 347.839 133.667,347.889 133.767,347.889 133.889 C 347.889 134.011,347.939 134.111,348.000 134.111 C 348.061 134.111,348.111 134.211,348.111 134.333 C 348.111 134.456,348.161 134.556,348.222 134.556 C 348.283 134.556,348.333 134.656,348.333 134.778 C 348.333 134.900,348.383 135.000,348.444 135.000 C 348.506 135.000,348.556 135.125,348.556 135.278 C 348.556 135.431,348.601 135.556,348.657 135.556 C 348.713 135.556,348.792 135.755,348.833 135.999 C 348.874 136.244,348.954 136.471,349.010 136.506 C 349.065 136.540,349.111 136.691,349.111 136.840 C 349.111 136.989,349.161 137.111,349.222 137.111 C 349.283 137.111,349.333 137.211,349.333 137.333 C 349.333 137.456,349.383 137.556,349.444 137.556 C 349.506 137.556,349.556 137.656,349.556 137.778 C 349.556 137.900,349.611 138.000,349.679 138.000 C 349.756 138.000,349.775 138.108,349.729 138.292 C 349.673 138.515,349.692 138.570,349.810 138.524 C 349.924 138.481,349.952 138.536,349.914 138.732 C 349.878 138.920,349.913 139.000,350.032 139.000 C 350.147 139.000,350.183 139.072,350.143 139.222 C 350.103 139.377,350.140 139.444,350.265 139.444 C 350.382 139.444,350.444 139.540,350.444 139.722 C 350.444 139.875,350.494 140.000,350.556 140.000 C 350.617 140.000,350.667 140.125,350.667 140.278 C 350.667 140.431,350.722 140.556,350.790 140.556 C 350.867 140.556,350.886 140.663,350.841 140.843 C 350.794 141.029,350.809 141.105,350.884 141.058 C 350.953 141.016,351.000 141.103,351.000 141.271 C 351.000 141.428,351.050 141.556,351.111 141.556 C 351.172 141.556,351.222 141.656,351.222 141.778 C 351.222 141.900,351.272 142.000,351.333 142.000 C 351.394 142.000,351.444 142.125,351.444 142.278 C 351.444 142.431,351.500 142.556,351.568 142.556 C 351.643 142.556,351.664 142.662,351.622 142.830 C 351.570 143.037,351.591 143.090,351.707 143.046 C 351.821 143.002,351.846 143.061,351.806 143.271 C 351.774 143.439,351.803 143.556,351.876 143.556 C 351.944 143.556,352.000 143.656,352.000 143.778 C 352.000 143.900,352.050 144.000,352.111 144.000 C 352.172 144.000,352.222 144.125,352.222 144.278 C 352.222 144.431,352.276 144.556,352.342 144.556 C 352.419 144.556,352.434 144.681,352.386 144.903 C 352.333 145.144,352.347 145.227,352.433 145.174 C 352.510 145.126,352.556 145.203,352.556 145.382 C 352.556 145.539,352.606 145.667,352.667 145.667 C 352.728 145.667,352.778 145.792,352.778 145.944 C 352.778 146.097,352.833 146.222,352.901 146.222 C 352.977 146.222,352.997 146.329,352.954 146.500 C 352.914 146.660,352.933 146.778,352.998 146.778 C 353.060 146.778,353.111 146.878,353.111 147.000 C 353.111 147.122,353.161 147.222,353.222 147.222 C 353.283 147.222,353.333 147.347,353.333 147.500 C 353.333 147.653,353.376 147.778,353.429 147.778 C 353.482 147.778,353.501 147.903,353.472 148.056 C 353.441 148.218,353.470 148.333,353.543 148.333 C 353.611 148.333,353.667 148.433,353.667 148.556 C 353.667 148.678,353.711 148.778,353.765 148.778 C 353.819 148.778,353.898 149.053,353.940 149.389 C 353.982 149.725,354.062 150.000,354.119 150.000 C 354.176 150.000,354.222 150.100,354.222 150.222 C 354.222 150.344,354.265 150.444,354.318 150.444 C 354.371 150.444,354.390 150.569,354.361 150.722 C 354.323 150.917,354.356 151.000,354.472 151.000 C 354.587 151.000,354.620 151.083,354.583 151.278 C 354.552 151.440,354.581 151.556,354.654 151.556 C 354.722 151.556,354.778 151.684,354.778 151.840 C 354.778 151.996,354.823 152.096,354.878 152.062 C 354.934 152.028,355.014 152.250,355.056 152.555 C 355.098 152.861,355.172 153.111,355.220 153.111 C 355.268 153.111,355.342 153.386,355.384 153.722 C 355.426 154.058,355.502 154.333,355.553 154.333 C 355.604 154.333,355.680 154.583,355.722 154.889 C 355.764 155.194,355.849 155.444,355.911 155.444 C 355.977 155.444,355.994 155.564,355.952 155.732 C 355.910 155.898,355.923 155.992,355.983 155.955 C 356.040 155.920,356.120 156.167,356.162 156.503 C 356.204 156.839,356.281 157.088,356.333 157.056 C 356.385 157.023,356.463 157.273,356.505 157.610 C 356.547 157.947,356.632 158.222,356.693 158.222 C 356.759 158.222,356.778 158.362,356.738 158.561 C 356.700 158.749,356.714 158.873,356.769 158.839 C 356.823 158.805,356.902 159.028,356.944 159.333 C 356.986 159.639,357.072 159.889,357.135 159.889 C 357.203 159.889,357.223 160.024,357.183 160.222 C 357.147 160.406,357.162 160.556,357.218 160.556 C 357.274 160.556,357.353 160.781,357.395 161.056 C 357.436 161.331,357.507 161.556,357.553 161.556 C 357.598 161.556,357.611 161.686,357.580 161.845 C 357.550 162.004,357.573 162.167,357.631 162.206 C 357.689 162.246,357.829 162.790,357.942 163.417 C 358.056 164.043,358.183 164.556,358.225 164.556 C 358.268 164.556,358.279 164.681,358.249 164.833 C 358.220 164.986,358.245 165.111,358.305 165.111 C 358.365 165.111,358.390 165.236,358.361 165.389 C 358.327 165.563,358.358 165.667,358.444 165.667 C 358.533 165.667,358.564 165.784,358.532 166.000 C 358.505 166.183,358.521 166.333,358.567 166.333 C 358.613 166.333,358.685 166.608,358.727 166.944 C 358.769 167.281,358.851 167.556,358.908 167.556 C 358.966 167.556,358.979 167.610,358.938 167.677 C 358.897 167.744,358.918 167.907,358.985 168.038 C 359.152 168.367,360.135 173.779,360.061 173.969 C 360.029 174.054,360.048 174.095,360.103 174.060 C 360.159 174.026,360.234 174.336,360.270 174.749 C 360.307 175.162,360.433 176.100,360.551 176.833 C 360.670 177.567,360.820 178.642,360.887 179.222 C 361.060 180.750,361.219 182.056,361.338 182.944 C 361.446 183.751,361.743 187.031,361.830 188.389 C 361.857 188.817,361.944 190.067,362.023 191.167 C 362.219 193.890,362.220 207.646,362.026 210.333 C 361.948 211.403,361.859 212.703,361.827 213.222 C 361.763 214.273,361.385 218.263,361.227 219.556 C 361.047 221.027,360.900 222.253,360.780 223.278 C 360.716 223.828,360.593 224.653,360.507 225.111 C 360.421 225.569,360.324 226.244,360.290 226.611 C 360.206 227.541,359.131 233.225,358.983 233.517 C 358.917 233.649,358.894 233.808,358.933 233.871 C 358.972 233.933,358.960 234.012,358.907 234.044 C 358.854 234.077,358.746 234.493,358.667 234.969 C 358.588 235.444,358.488 235.883,358.444 235.944 C 358.401 236.006,358.225 236.781,358.054 237.667 C 357.882 238.553,357.708 239.303,357.667 239.333 C 357.626 239.364,357.527 239.775,357.448 240.247 C 357.364 240.742,357.257 241.077,357.195 241.039 C 357.129 240.998,357.116 241.102,357.161 241.309 C 357.202 241.494,357.188 241.675,357.130 241.710 C 357.073 241.746,356.992 242.001,356.950 242.276 C 356.909 242.552,356.830 242.778,356.774 242.778 C 356.718 242.778,356.702 242.928,356.739 243.111 C 356.778 243.306,356.759 243.444,356.693 243.444 C 356.631 243.444,356.547 243.669,356.506 243.944 C 356.465 244.219,356.387 244.444,356.335 244.444 C 356.282 244.444,356.204 244.719,356.162 245.054 C 356.117 245.414,356.040 245.636,355.975 245.596 C 355.905 245.553,355.894 245.659,355.944 245.889 C 355.995 246.119,355.984 246.225,355.913 246.182 C 355.848 246.142,355.772 246.364,355.727 246.723 C 355.685 247.059,355.609 247.333,355.558 247.333 C 355.507 247.333,355.431 247.583,355.389 247.889 C 355.347 248.194,355.270 248.444,355.219 248.444 C 355.167 248.444,355.091 248.669,355.050 248.944 C 355.009 249.219,354.930 249.444,354.876 249.444 C 354.822 249.444,354.778 249.566,354.778 249.716 C 354.778 249.865,354.723 250.020,354.657 250.062 C 354.591 250.103,354.560 250.227,354.589 250.339 C 354.618 250.450,354.576 250.567,354.495 250.597 C 354.415 250.628,354.315 250.882,354.273 251.160 C 354.231 251.439,354.157 251.667,354.109 251.667 C 354.060 251.667,353.986 251.917,353.944 252.222 C 353.902 252.528,353.823 252.778,353.767 252.778 C 353.712 252.778,353.667 252.878,353.667 253.000 C 353.667 253.122,353.621 253.222,353.566 253.222 C 353.511 253.222,353.431 253.472,353.389 253.778 C 353.347 254.083,353.267 254.333,353.212 254.333 C 353.156 254.333,353.111 254.461,353.111 254.618 C 353.111 254.797,353.066 254.874,352.988 254.826 C 352.903 254.773,352.888 254.856,352.941 255.097 C 352.990 255.319,352.974 255.444,352.898 255.444 C 352.832 255.444,352.778 255.569,352.778 255.722 C 352.778 255.875,352.728 256.000,352.667 256.000 C 352.606 256.000,352.556 256.103,352.556 256.229 C 352.556 256.355,352.506 256.427,352.444 256.389 C 352.319 256.311,352.300 256.451,352.401 256.713 C 352.522 257.028,354.199 256.963,354.321 256.639 C 354.373 256.501,354.526 256.114,354.662 255.778 C 354.798 255.442,354.976 254.942,355.057 254.667 C 355.274 253.936,355.648 252.838,356.004 251.889 C 356.176 251.431,356.423 250.681,356.554 250.222 C 356.684 249.764,356.888 249.164,357.008 248.889 C 357.127 248.614,357.320 247.939,357.437 247.389 C 357.554 246.839,357.732 246.114,357.834 245.778 C 358.169 244.666,358.746 242.429,359.123 240.778 C 359.241 240.258,359.384 239.708,359.439 239.556 C 359.679 238.891,359.989 237.640,360.168 236.611 C 360.275 236.000,360.402 235.422,360.451 235.327 C 360.500 235.232,360.791 233.832,361.097 232.216 C 361.823 228.381,361.897 227.956,361.944 227.346 C 361.966 227.064,362.093 226.233,362.227 225.500 C 362.360 224.767,362.466 224.042,362.463 223.889 C 362.459 223.736,362.502 223.361,362.558 223.056 C 362.614 222.750,362.686 222.193,362.718 221.818 C 362.749 221.443,362.800 221.068,362.830 220.985 C 362.861 220.901,362.962 220.058,363.056 219.111 C 363.150 218.164,363.272 216.982,363.327 216.484 C 363.382 215.987,363.457 215.112,363.493 214.540 C 363.529 213.968,363.607 212.950,363.666 212.278 C 364.456 203.295,364.055 189.518,362.720 179.722 C 362.620 178.989,362.521 178.164,362.500 177.889 C 362.479 177.614,362.357 176.814,362.228 176.111 C 362.099 175.408,361.969 174.583,361.937 174.278 C 361.865 173.566,360.950 168.477,360.660 167.167 C 360.538 166.617,360.295 165.517,360.120 164.722 C 359.945 163.928,359.718 163.003,359.615 162.667 C 359.513 162.331,359.311 161.556,359.168 160.944 C 359.024 160.333,358.801 159.433,358.671 158.944 C 358.541 158.456,358.342 157.681,358.228 157.222 C 358.114 156.764,357.937 156.114,357.834 155.778 C 357.731 155.442,357.535 154.692,357.399 154.111 C 357.263 153.531,357.068 152.896,356.965 152.700 C 356.862 152.504,356.778 152.275,356.778 152.191 C 356.778 151.967,356.354 150.582,356.107 150.000 C 355.990 149.725,355.813 149.225,355.714 148.889 C 355.506 148.189,355.070 146.953,354.774 146.222 C 354.662 145.947,354.440 145.297,354.280 144.778 C 354.119 144.258,353.821 143.433,353.618 142.944 C 353.414 142.456,353.171 141.831,353.078 141.556 C 352.665 140.336,352.204 139.146,351.795 138.248 C 351.552 137.714,351.245 137.003,351.112 136.667 C 350.979 136.331,350.725 135.756,350.546 135.389 C 350.368 135.022,350.223 134.672,350.224 134.611 C 350.230 134.295,345.641 124.856,345.264 124.408 C 345.119 124.235,344.968 123.960,344.929 123.797 C 344.855 123.492,344.687 123.157,343.831 121.611 C 343.561 121.122,343.139 120.339,342.895 119.870 C 342.650 119.401,342.402 118.987,342.342 118.950 C 342.283 118.913,341.972 118.397,341.652 117.803 C 341.332 117.208,340.910 116.494,340.714 116.214 C 340.519 115.935,340.277 115.547,340.177 115.353 L 339.994 115.000 338.886 115.000 C 338.221 115.000,337.778 115.044,337.778 115.111 M210.242 116.222 C 210.292 116.222,210.333 116.273,210.333 116.336 C 210.333 116.398,210.470 116.660,210.638 116.919 C 210.805 117.177,211.004 117.514,211.080 117.667 C 211.156 117.819,211.268 118.019,211.328 118.111 C 211.389 118.203,211.700 118.728,212.020 119.278 C 212.341 119.828,212.631 120.303,212.665 120.333 C 212.699 120.364,212.787 120.514,212.861 120.667 C 213.045 121.047,213.361 121.596,214.333 123.222 C 215.271 124.791,215.437 125.073,215.838 125.778 C 215.994 126.053,216.290 126.553,216.496 126.889 C 216.702 127.225,217.080 127.869,217.335 128.320 C 217.591 128.771,218.195 129.788,218.678 130.580 C 219.160 131.372,219.556 132.039,219.556 132.062 C 219.556 132.085,219.821 132.543,220.146 133.079 C 220.470 133.616,220.772 134.131,220.816 134.222 C 220.860 134.314,221.067 134.664,221.276 135.000 C 221.485 135.336,221.815 135.911,222.009 136.278 C 222.202 136.644,222.405 136.961,222.458 136.981 C 222.512 137.002,222.556 137.068,222.556 137.128 C 222.556 137.188,222.695 137.447,222.866 137.702 C 223.037 137.958,223.237 138.292,223.311 138.444 C 223.481 138.793,223.947 139.602,224.272 140.111 C 224.746 140.854,224.935 141.169,225.173 141.615 C 225.545 142.311,225.698 142.566,226.028 143.039 C 226.196 143.280,226.333 143.517,226.333 143.564 C 226.333 143.612,226.583 144.058,226.889 144.556 C 227.194 145.053,227.444 145.487,227.444 145.519 C 227.444 145.551,227.539 145.710,227.654 145.872 C 227.769 146.034,227.978 146.367,228.118 146.611 C 228.690 147.608,229.036 148.198,229.389 148.778 C 229.593 149.114,229.873 149.601,230.011 149.861 C 230.149 150.121,230.303 150.333,230.353 150.333 C 230.403 150.333,230.444 150.393,230.444 150.465 C 230.444 150.582,231.959 153.194,232.107 153.333 C 232.140 153.364,232.252 153.564,232.357 153.778 C 232.462 153.992,232.848 154.667,233.215 155.278 C 233.583 155.889,234.036 156.664,234.224 157.000 C 234.411 157.336,234.810 158.011,235.111 158.500 C 235.412 158.989,235.787 159.630,235.946 159.925 C 236.105 160.220,236.457 160.808,236.728 161.232 C 237.000 161.656,237.222 162.025,237.222 162.053 C 237.222 162.081,237.522 162.603,237.889 163.213 C 238.256 163.824,238.556 164.375,238.556 164.439 C 238.556 164.503,238.595 164.556,238.643 164.556 C 238.692 164.556,238.879 164.832,239.060 165.170 C 239.585 166.150,239.709 166.362,240.030 166.831 C 240.197 167.075,240.333 167.337,240.333 167.415 C 240.333 167.492,240.383 167.556,240.444 167.556 C 240.506 167.556,240.556 167.606,240.556 167.669 C 240.556 167.731,240.788 168.168,241.072 168.641 C 241.356 169.113,241.614 169.550,241.645 169.611 C 241.746 169.807,240.839 168.992,239.213 167.426 C 238.811 167.039,237.866 166.147,237.112 165.444 C 235.405 163.853,234.805 163.284,233.882 162.380 C 233.481 161.988,233.126 161.667,233.092 161.667 C 233.058 161.667,232.660 161.304,232.208 160.861 C 231.755 160.418,230.763 159.481,230.002 158.778 C 229.242 158.075,228.388 157.275,228.106 157.000 C 227.824 156.725,227.272 156.205,226.880 155.845 C 226.487 155.485,225.723 154.772,225.182 154.262 C 224.078 153.221,223.795 153.128,223.546 153.724 C 223.521 153.784,223.254 154.208,222.954 154.667 C 222.654 155.125,222.167 155.875,221.873 156.333 C 221.578 156.792,221.296 157.217,221.246 157.278 C 221.196 157.339,221.058 157.564,220.939 157.778 C 220.820 157.992,220.697 158.192,220.667 158.222 C 220.636 158.253,220.366 158.653,220.067 159.111 C 219.768 159.569,219.380 160.153,219.206 160.407 C 219.032 160.661,218.889 160.924,218.889 160.990 C 218.889 161.057,218.850 161.111,218.803 161.111 C 218.756 161.111,218.618 161.299,218.498 161.528 C 218.377 161.757,218.228 162.001,218.167 162.070 C 218.041 162.212,218.025 162.235,217.112 163.631 C 216.745 164.192,216.444 164.700,216.444 164.758 C 216.444 164.817,216.369 164.894,216.278 164.929 C 216.186 164.964,216.111 165.070,216.111 165.163 C 216.111 165.257,216.061 165.333,216.000 165.333 C 215.939 165.333,215.889 165.391,215.889 165.462 C 215.889 165.532,215.764 165.754,215.611 165.954 C 215.458 166.155,215.333 166.345,215.333 166.378 C 215.333 166.411,215.033 166.883,214.667 167.427 C 214.300 167.970,214.000 168.472,214.000 168.541 C 214.000 168.610,213.962 168.667,213.917 168.668 C 213.871 168.669,213.658 168.968,213.444 169.333 C 213.231 169.698,213.018 169.997,212.972 169.998 C 212.926 169.999,212.889 170.050,212.889 170.111 C 212.889 170.172,212.714 170.465,212.500 170.763 C 212.286 171.061,212.111 171.338,212.111 171.379 C 212.111 171.420,212.059 171.514,211.996 171.588 C 211.932 171.662,211.609 172.147,211.277 172.667 C 210.946 173.186,210.624 173.686,210.563 173.778 C 210.501 173.869,210.274 174.206,210.059 174.525 C 209.843 174.844,209.667 175.134,209.667 175.169 C 209.667 175.203,209.614 175.292,209.549 175.366 C 209.434 175.497,208.719 176.588,207.131 179.056 C 206.698 179.728,206.291 180.338,206.227 180.412 C 206.163 180.486,206.111 180.573,206.111 180.606 C 206.111 180.639,205.936 180.910,205.722 181.207 C 205.508 181.505,205.333 181.782,205.333 181.824 C 205.333 181.865,205.283 181.959,205.221 182.032 C 204.939 182.368,204.223 183.513,204.222 183.627 C 204.222 183.697,204.147 183.783,204.056 183.818 C 203.964 183.853,203.889 183.958,203.889 184.052 C 203.889 184.146,203.839 184.222,203.778 184.222 C 203.717 184.222,203.667 184.265,203.667 184.318 C 203.667 184.397,202.144 186.779,201.643 187.482 C 201.506 187.674,201.476 187.665,201.106 187.315 C 200.891 187.111,199.946 186.219,199.008 185.333 C 198.069 184.447,197.041 183.472,196.724 183.167 C 195.898 182.372,192.482 179.118,192.059 178.722 C 190.888 177.628,188.846 175.705,188.018 174.917 C 187.489 174.413,186.996 174.001,186.922 174.000 C 186.849 174.000,185.374 174.719,183.644 175.598 C 178.266 178.331,171.065 181.954,170.850 182.035 C 170.663 182.106,170.667 182.074,170.894 181.695 C 171.932 179.962,172.667 178.665,172.667 178.564 C 172.667 178.498,172.708 178.444,172.758 178.444 C 172.808 178.444,172.961 178.232,173.098 177.972 C 173.234 177.712,173.593 177.080,173.895 176.567 C 174.197 176.054,174.444 175.591,174.444 175.539 C 174.444 175.487,174.487 175.444,174.539 175.444 C 174.591 175.444,174.726 175.237,174.841 174.984 C 174.955 174.730,175.103 174.468,175.169 174.400 C 175.235 174.333,175.439 174.003,175.623 173.667 C 176.055 172.874,176.264 172.513,176.333 172.444 C 176.436 172.342,176.666 171.946,176.785 171.669 C 176.850 171.517,176.941 171.367,176.987 171.336 C 177.033 171.304,177.183 171.053,177.320 170.778 C 177.457 170.503,177.765 169.978,178.004 169.611 C 178.243 169.244,178.513 168.794,178.604 168.611 C 178.838 168.142,179.242 167.449,179.968 166.274 C 180.080 166.092,181.229 164.130,181.611 163.467 C 181.672 163.361,181.976 162.850,182.285 162.332 C 183.686 159.986,184.111 159.241,184.111 159.134 C 184.111 159.070,184.152 159.002,184.202 158.981 C 184.252 158.961,184.689 158.271,185.174 157.447 C 185.659 156.624,186.106 155.866,186.167 155.764 C 186.228 155.662,186.525 155.136,186.826 154.595 C 187.128 154.054,187.408 153.586,187.450 153.556 C 187.492 153.525,187.639 153.275,187.778 153.000 C 187.916 152.725,188.064 152.475,188.107 152.444 C 188.149 152.414,188.305 152.164,188.453 151.889 C 188.601 151.614,188.785 151.323,188.861 151.242 C 188.938 151.161,189.000 151.027,189.000 150.944 C 189.000 150.862,189.063 150.728,189.139 150.647 C 189.215 150.566,189.399 150.275,189.547 150.000 C 189.695 149.725,189.845 149.475,189.881 149.444 C 189.916 149.414,190.064 149.164,190.211 148.889 C 190.358 148.614,190.534 148.314,190.603 148.222 C 190.673 148.131,190.849 147.831,190.995 147.556 C 191.142 147.281,191.389 146.856,191.544 146.611 C 191.700 146.367,191.884 146.067,191.952 145.944 C 192.290 145.339,193.397 143.451,193.627 143.086 C 193.771 142.858,193.889 142.620,193.889 142.558 C 193.889 142.495,193.927 142.444,193.973 142.444 C 194.019 142.444,194.119 142.307,194.194 142.139 C 194.269 141.971,194.441 141.658,194.576 141.444 C 195.096 140.618,196.333 138.431,196.333 138.338 C 196.333 138.285,196.375 138.224,196.426 138.204 C 196.542 138.158,198.111 135.500,198.111 135.350 C 198.111 135.290,198.151 135.224,198.200 135.204 C 198.316 135.156,199.087 133.875,199.929 132.333 C 200.112 131.997,200.291 131.697,200.327 131.667 C 200.362 131.636,200.581 131.286,200.814 130.889 C 201.046 130.492,201.281 130.092,201.335 130.000 C 201.388 129.908,201.567 129.583,201.731 129.278 C 201.894 128.972,202.065 128.697,202.110 128.667 C 202.156 128.636,202.305 128.389,202.442 128.118 C 202.580 127.847,202.762 127.556,202.846 127.471 C 202.931 127.387,203.000 127.275,203.000 127.224 C 203.000 127.172,203.224 126.763,203.499 126.315 C 203.773 125.867,204.048 125.384,204.110 125.242 C 204.172 125.101,204.347 124.821,204.500 124.621 C 204.653 124.421,204.778 124.220,204.778 124.175 C 204.778 124.130,205.146 123.485,205.596 122.741 C 206.046 121.997,206.523 121.189,206.657 120.944 C 206.790 120.700,207.064 120.225,207.266 119.889 C 207.864 118.893,208.777 117.340,209.316 116.400 L 209.820 115.523 209.986 115.872 C 210.077 116.065,210.192 116.222,210.242 116.222 M254.944 216.076 C 254.023 216.124,252.625 216.302,251.111 216.565 C 250.408 216.687,249.533 216.837,249.167 216.898 C 248.800 216.960,248.250 217.080,247.944 217.165 C 247.639 217.250,246.564 217.521,245.556 217.767 C 243.636 218.236,241.705 218.832,240.111 219.448 C 238.738 219.980,235.669 221.222,235.458 221.332 C 235.256 221.438,233.738 222.150,232.722 222.616 C 231.666 223.100,228.949 224.614,227.578 225.483 C 226.888 225.920,226.163 226.375,225.967 226.494 C 225.101 227.021,222.363 229.110,220.736 230.486 C 218.947 231.998,216.685 234.307,214.833 236.509 C 212.576 239.193,212.701 239.023,209.143 244.222 C 208.495 245.169,207.457 246.694,206.835 247.611 C 206.214 248.528,205.484 249.594,205.214 249.981 C 204.944 250.367,204.597 250.872,204.444 251.102 C 204.292 251.332,203.673 252.266,203.070 253.177 C 202.467 254.088,201.903 254.933,201.817 255.056 C 201.370 255.690,199.342 258.790,198.060 260.797 C 197.480 261.705,196.594 263.134,195.497 264.929 C 193.145 268.780,190.169 273.023,187.734 275.997 C 185.319 278.947,184.426 279.893,181.216 282.899 C 178.678 285.275,178.492 285.439,176.894 286.710 C 174.635 288.505,174.164 288.846,171.889 290.336 C 170.410 291.304,168.154 292.529,165.670 293.713 C 160.308 296.267,154.050 297.658,147.889 297.663 C 146.388 297.664,144.901 297.602,144.167 297.509 C 143.494 297.423,142.469 297.296,141.889 297.225 C 138.259 296.786,132.485 294.888,128.833 292.934 C 127.286 292.106,127.011 291.952,126.111 291.413 C 119.132 287.231,112.692 280.871,107.354 272.889 C 106.720 271.942,106.105 270.992,105.987 270.778 C 105.868 270.564,105.685 270.257,105.580 270.097 C 105.475 269.936,105.014 269.148,104.556 268.347 C 103.654 266.769,103.623 266.746,103.278 267.397 C 103.151 267.637,102.911 268.032,102.746 268.276 C 102.580 268.519,102.444 268.772,102.444 268.838 C 102.444 268.904,102.357 269.055,102.250 269.174 C 102.080 269.363,101.943 269.594,101.397 270.611 C 101.331 270.733,101.250 270.858,101.215 270.889 C 101.181 270.919,100.758 271.594,100.276 272.389 C 99.793 273.183,99.212 274.133,98.984 274.500 C 98.757 274.867,98.332 275.567,98.041 276.056 C 97.750 276.544,97.286 277.294,97.009 277.722 C 96.369 278.715,96.222 278.987,96.222 279.187 C 96.222 279.957,99.141 284.759,101.622 288.070 C 103.435 290.490,104.577 291.867,106.675 294.165 C 106.955 294.472,107.335 294.897,107.521 295.111 C 113.228 301.701,117.188 304.932,122.833 307.607 C 123.773 308.053,124.901 308.556,124.961 308.556 C 124.993 308.556,125.377 308.713,125.815 308.906 C 127.644 309.710,130.864 310.749,133.333 311.333 C 134.158 311.528,135.008 311.732,135.222 311.787 C 136.040 311.997,139.227 312.556,140.556 312.723 C 141.319 312.818,142.494 312.969,143.167 313.057 C 147.306 313.600,154.269 313.598,157.667 313.051 C 160.402 312.612,160.917 312.514,162.111 312.208 C 162.814 312.029,163.489 311.839,163.611 311.786 C 163.733 311.734,164.058 311.631,164.333 311.558 C 165.161 311.338,168.340 310.210,169.086 309.872 C 169.470 309.698,169.813 309.556,169.849 309.556 C 169.885 309.556,170.421 309.312,171.040 309.014 C 171.660 308.716,172.292 308.414,172.444 308.342 C 172.909 308.124,173.337 307.890,174.556 307.191 C 175.197 306.822,175.997 306.363,176.333 306.171 C 177.626 305.431,180.072 303.737,181.667 302.477 C 182.505 301.815,185.074 299.714,185.389 299.432 C 185.572 299.269,185.997 298.899,186.333 298.611 C 186.669 298.322,186.994 298.029,187.056 297.960 C 187.117 297.890,187.344 297.701,187.562 297.539 C 190.034 295.694,195.470 289.556,198.814 284.833 C 199.540 283.808,202.214 279.749,202.840 278.722 C 203.673 277.356,204.447 276.113,205.195 274.944 C 205.507 274.456,205.949 273.756,206.177 273.389 C 206.611 272.692,207.675 271.053,209.641 268.056 C 210.898 266.138,210.959 266.048,212.925 263.189 C 214.495 260.907,215.941 258.773,216.778 257.505 C 217.495 256.418,218.218 255.379,219.062 254.222 C 219.397 253.764,219.795 253.214,219.946 253.000 C 222.240 249.760,226.495 245.413,229.346 243.397 C 229.859 243.034,230.403 242.627,230.556 242.490 C 230.887 242.195,234.032 240.250,236.111 239.056 C 240.364 236.612,244.012 235.108,248.333 234.018 C 256.776 231.887,266.434 231.886,276.111 234.015 C 279.191 234.693,282.500 235.629,284.889 236.499 C 287.026 237.277,288.885 237.996,289.611 238.326 C 289.733 238.382,290.358 238.661,291.000 238.947 C 292.615 239.666,295.372 241.056,296.833 241.887 C 297.506 242.270,298.206 242.660,298.389 242.755 C 298.572 242.850,298.877 243.044,299.066 243.186 C 299.255 243.328,299.450 243.444,299.500 243.444 C 299.550 243.444,299.745 243.562,299.934 243.705 C 300.123 243.848,300.330 243.986,300.393 244.010 C 300.456 244.035,301.246 244.549,302.149 245.152 C 303.661 246.162,304.202 246.419,303.740 245.909 C 303.639 245.796,303.556 245.666,303.556 245.618 C 303.556 245.571,303.410 245.317,303.233 245.054 C 303.056 244.791,302.877 244.472,302.837 244.344 C 302.796 244.216,302.716 244.111,302.659 244.111 C 302.602 244.111,302.556 244.060,302.556 243.998 C 302.556 243.936,302.328 243.498,302.049 243.026 C 301.771 242.553,301.499 242.092,301.446 242.000 C 301.392 241.908,301.120 241.453,300.841 240.988 C 300.562 240.522,300.333 240.085,300.333 240.015 C 300.333 239.946,300.295 239.889,300.248 239.889 C 300.201 239.889,300.038 239.651,299.887 239.361 C 299.735 239.071,299.582 238.808,299.547 238.778 C 299.512 238.747,299.362 238.497,299.214 238.222 C 299.066 237.947,298.915 237.697,298.879 237.667 C 298.844 237.636,298.623 237.261,298.389 236.833 C 297.882 235.904,297.194 234.744,297.105 234.667 C 297.070 234.636,296.808 234.186,296.523 233.667 C 296.238 233.147,295.732 232.272,295.399 231.722 C 294.627 230.447,293.845 229.113,293.413 228.333 C 293.226 227.997,293.032 227.706,292.981 227.685 C 292.931 227.665,292.889 227.603,292.889 227.548 C 292.889 227.454,291.973 225.845,291.566 225.222 C 291.466 225.069,291.285 224.753,291.164 224.520 C 290.833 223.880,290.477 223.587,289.500 223.151 C 289.011 222.933,288.386 222.654,288.111 222.531 C 284.223 220.794,276.776 218.460,272.056 217.500 C 270.711 217.226,269.311 216.930,268.944 216.841 C 266.198 216.179,259.767 215.827,254.944 216.076 M343.131 264.507 C 342.811 265.166,342.220 264.795,348.604 267.938 C 351.696 269.461,354.188 270.742,354.141 270.785 C 354.094 270.829,350.481 271.721,346.111 272.767 C 341.742 273.814,338.074 274.709,337.961 274.756 C 337.791 274.826,351.960 282.000,352.270 282.000 C 352.303 282.000,352.453 281.757,352.603 281.461 L 352.876 280.922 347.162 278.108 C 344.019 276.560,341.459 275.283,341.474 275.269 C 341.488 275.256,345.200 274.359,349.722 273.276 C 354.244 272.193,357.965 271.288,357.990 271.265 C 358.030 271.228,343.536 264.000,343.422 264.000 C 343.398 264.000,343.267 264.228,343.131 264.507 M51.528 268.284 C 47.571 270.267,44.333 271.916,44.333 271.949 C 44.333 272.006,44.772 272.907,44.835 272.979 C 44.851 272.997,47.325 271.782,50.333 270.278 C 53.341 268.774,55.819 267.559,55.839 267.580 C 55.859 267.600,54.629 269.959,53.105 272.821 C 51.580 275.684,50.333 278.066,50.333 278.115 C 50.333 278.241,50.357 278.245,56.278 279.111 C 59.211 279.539,61.736 279.920,61.889 279.956 C 62.113 280.010,61.107 280.552,56.722 282.746 C 50.340 285.938,51.129 285.437,51.441 286.104 L 51.697 286.651 58.960 283.020 C 64.703 280.149,66.171 279.373,65.973 279.313 C 65.835 279.271,62.722 278.801,59.056 278.269 C 55.389 277.736,52.353 277.270,52.309 277.231 C 52.242 277.174,53.937 273.936,58.291 265.806 C 58.627 265.179,58.861 264.669,58.812 264.673 C 58.762 264.676,55.485 266.301,51.528 268.284 M332.130 284.786 C 330.835 287.296,329.800 289.390,329.831 289.440 C 329.891 289.537,343.622 296.626,343.866 296.687 C 343.958 296.709,344.888 295.025,346.392 292.111 L 348.774 287.500 348.221 287.227 C 347.533 286.888,347.840 286.458,345.435 291.134 L 343.394 295.102 341.947 294.343 C 341.151 293.926,339.937 293.298,339.248 292.948 L 337.996 292.312 339.616 289.156 C 340.506 287.420,341.210 285.959,341.179 285.908 C 341.066 285.726,340.215 285.407,340.114 285.509 C 340.058 285.565,339.330 286.936,338.495 288.556 C 337.660 290.175,336.937 291.542,336.889 291.594 C 336.827 291.660,331.842 289.219,331.466 288.939 C 331.448 288.925,332.360 287.116,333.494 284.918 C 334.628 282.721,335.555 280.878,335.555 280.823 C 335.554 280.718,334.750 280.222,334.582 280.222 C 334.528 280.222,333.425 282.276,332.130 284.786 M63.222 290.083 C 58.486 290.972,54.593 291.713,54.572 291.731 C 54.473 291.813,55.281 292.778,55.448 292.778 C 55.606 292.778,58.861 292.200,59.474 292.064 C 59.624 292.030,60.232 292.808,62.020 295.315 C 63.312 297.128,64.408 298.663,64.456 298.726 C 64.505 298.791,64.061 299.655,63.430 300.719 C 62.451 302.370,62.333 302.625,62.445 302.835 C 62.635 303.189,63.084 303.731,63.136 303.667 C 63.250 303.523,72.019 288.746,72.073 288.605 C 72.155 288.391,72.920 288.264,63.222 290.083 M69.636 290.194 C 69.139 291.145,65.274 297.554,65.212 297.531 C 65.061 297.477,61.096 291.867,61.162 291.801 C 61.197 291.766,63.112 291.377,65.418 290.936 C 67.724 290.494,69.627 290.128,69.645 290.122 C 69.664 290.116,69.660 290.149,69.636 290.194 M326.862 293.987 C 326.051 294.255,325.305 294.735,324.651 295.411 C 323.931 296.157,320.851 300.239,320.841 300.460 C 320.834 300.626,333.211 310.111,333.434 310.111 C 333.532 310.111,334.264 309.223,334.206 309.176 C 334.176 309.152,331.256 306.937,328.906 305.157 C 328.775 305.057,329.014 304.679,330.250 303.037 C 332.276 300.344,332.556 299.743,332.556 298.087 C 332.556 294.947,329.855 293.002,326.862 293.987 M329.778 295.317 C 331.206 296.016,331.751 297.995,330.979 299.677 C 330.771 300.128,328.392 303.449,327.773 304.149 C 327.647 304.293,322.421 300.330,322.540 300.180 C 322.594 300.111,323.266 299.226,324.034 298.212 C 326.443 295.032,327.799 294.349,329.778 295.317 M73.063 303.278 C 69.584 305.934,66.684 308.163,66.619 308.232 C 66.531 308.325,67.627 308.337,70.878 308.278 C 74.546 308.211,75.246 308.222,75.199 308.349 C 75.168 308.432,74.727 310.360,74.219 312.633 L 73.296 316.767 73.595 317.189 C 74.095 317.895,74.218 318.041,74.269 317.990 C 74.296 317.963,74.802 315.767,75.394 313.109 C 75.986 310.452,76.502 308.244,76.541 308.204 C 76.579 308.163,78.511 308.099,80.833 308.062 C 83.156 308.025,85.417 307.966,85.858 307.932 L 86.660 307.871 86.203 307.265 L 85.746 306.659 85.123 306.716 C 84.297 306.792,70.779 307.043,70.524 306.988 C 70.390 306.959,71.921 305.730,75.217 303.222 C 77.908 301.175,80.109 299.458,80.110 299.407 C 80.111 299.294,79.523 298.449,79.444 298.450 C 79.414 298.450,76.542 300.623,73.063 303.278 M317.111 305.812 C 315.796 306.186,315.391 306.502,312.578 309.349 L 310.545 311.407 316.255 317.032 L 321.964 322.658 322.395 322.216 L 322.827 321.773 320.390 319.334 L 317.952 316.895 319.848 314.975 C 322.408 312.383,322.946 311.265,322.654 309.142 C 322.309 306.627,319.718 305.070,317.111 305.812 M319.834 307.150 C 320.950 307.670,321.497 308.657,321.428 310.025 C 321.359 311.393,321.008 311.946,318.845 314.103 L 317.014 315.928 315.590 314.583 C 314.807 313.844,313.754 312.821,313.249 312.310 L 312.331 311.382 314.249 309.482 C 316.564 307.188,317.021 306.911,318.500 306.898 C 319.092 306.893,319.411 306.953,319.834 307.150 M84.167 316.231 C 81.172 319.345,78.709 321.933,78.692 321.982 C 78.665 322.060,85.919 329.124,86.101 329.196 C 86.142 329.212,86.371 329.023,86.612 328.777 L 87.049 328.329 86.441 327.739 C 86.107 327.415,84.622 325.983,83.141 324.558 L 80.449 321.966 80.855 321.511 C 81.078 321.260,82.020 320.274,82.948 319.318 L 84.635 317.581 87.167 320.013 C 90.049 322.781,89.723 322.568,90.256 322.023 L 90.667 321.601 88.139 319.162 C 86.749 317.820,85.611 316.687,85.611 316.644 C 85.611 316.507,89.689 312.322,89.789 312.356 C 89.841 312.374,91.315 313.764,93.064 315.444 C 96.627 318.868,96.372 318.689,96.865 318.113 L 97.230 317.687 93.537 314.121 C 91.505 312.160,89.791 310.559,89.727 310.562 C 89.663 310.566,87.161 313.117,84.167 316.231 M301.779 319.414 C 301.784 319.724,306.872 336.389,306.962 336.389 C 307.024 336.389,307.264 336.222,307.497 336.018 L 307.920 335.646 307.291 333.523 C 306.690 331.494,306.671 331.391,306.859 331.207 C 307.645 330.439,312.858 325.890,312.952 325.889 C 313.017 325.889,313.939 326.286,315.001 326.772 L 316.933 327.655 317.400 327.244 C 317.658 327.018,317.873 326.808,317.878 326.778 C 317.884 326.747,314.401 325.126,310.139 323.175 C 305.876 321.224,302.251 319.560,302.083 319.477 C 301.915 319.395,301.778 319.366,301.779 319.414 M307.806 323.502 C 309.930 324.468,311.655 325.268,311.639 325.281 C 311.624 325.293,310.418 326.363,308.960 327.658 C 307.502 328.953,306.289 329.992,306.263 329.967 C 306.093 329.797,303.717 321.620,303.861 321.699 C 303.907 321.724,305.682 322.535,307.806 323.502 M292.972 326.855 C 292.426 327.230,292.292 326.927,294.512 330.343 C 295.589 331.999,296.426 333.394,296.373 333.444 C 296.177 333.632,288.885 338.333,288.791 338.333 C 288.737 338.333,287.829 337.004,286.773 335.379 C 285.718 333.754,284.791 332.400,284.715 332.371 C 284.515 332.294,283.654 332.889,283.745 333.041 C 283.982 333.439,292.266 346.184,292.340 346.265 C 292.451 346.387,293.462 345.765,293.403 345.611 C 293.379 345.550,292.482 344.153,291.409 342.506 C 289.673 339.840,289.479 339.497,289.646 339.380 C 289.838 339.246,294.672 336.097,296.293 335.050 L 297.197 334.466 299.171 337.511 C 300.256 339.185,301.200 340.556,301.268 340.556 C 301.395 340.556,302.222 340.029,302.222 339.948 C 302.222 339.838,293.575 326.618,293.487 326.595 C 293.433 326.581,293.201 326.698,292.972 326.855 M108.120 329.562 C 102.171 331.119,100.045 338.660,104.333 342.995 C 104.889 343.556,108.967 346.527,110.184 347.256 C 110.291 347.321,114.953 340.797,114.859 340.714 C 114.607 340.491,109.635 337.111,109.559 337.111 C 109.452 337.111,108.889 337.873,108.889 338.019 C 108.889 338.061,109.837 338.756,110.996 339.562 L 113.103 341.027 112.398 342.041 C 112.010 342.599,111.310 343.606,110.841 344.278 C 110.372 344.950,109.932 345.485,109.864 345.466 C 109.518 345.371,105.751 342.650,105.218 342.110 C 101.578 338.423,103.496 331.922,108.576 330.724 C 112.169 329.877,115.985 332.248,116.785 335.823 L 116.922 336.436 117.433 336.370 C 118.131 336.281,118.148 336.249,117.946 335.377 C 116.950 331.073,112.471 328.422,108.120 329.562 M124.721 338.821 C 118.761 339.961,116.078 346.932,119.705 351.854 C 122.869 356.149,129.776 355.976,132.797 351.527 C 136.911 345.469,131.822 337.463,124.721 338.821 M128.021 340.183 C 133.100 341.692,134.697 348.001,130.942 351.725 C 126.611 356.020,119.331 352.994,119.305 346.889 C 119.287 342.371,123.771 338.921,128.021 340.183 M267.667 341.960 C 263.375 342.586,260.520 346.290,262.017 349.287 C 263.046 351.349,265.387 351.814,268.944 350.664 C 272.140 349.630,273.835 349.880,274.567 351.492 C 276.121 354.912,269.213 358.769,266.730 355.868 L 266.359 355.435 266.013 355.906 C 265.565 356.515,265.572 356.564,266.178 357.098 C 269.380 359.917,275.945 356.826,275.944 352.500 C 275.944 349.134,273.050 347.963,268.474 349.477 C 265.544 350.447,263.893 350.199,263.114 348.673 C 261.398 345.309,268.044 341.367,270.794 344.117 L 271.323 344.646 271.678 344.094 L 272.032 343.542 271.613 343.113 C 270.794 342.274,269.035 341.760,267.667 341.960 M142.944 346.934 C 135.512 348.633,134.241 358.921,141.056 362.230 C 148.190 365.695,155.481 358.036,151.798 350.944 C 150.248 347.960,146.292 346.169,142.944 346.934 M146.222 348.173 C 151.480 349.409,153.299 355.974,149.442 359.796 C 145.070 364.127,137.823 361.063,137.836 354.889 C 137.844 350.498,141.990 347.179,146.222 348.173 M251.157 348.387 C 242.219 350.332,243.140 363.416,252.283 364.390 C 253.612 364.531,260.889 362.585,260.889 362.088 C 260.889 361.909,258.547 354.735,258.457 354.640 C 258.415 354.595,257.014 355.013,255.345 355.570 C 251.966 356.697,252.191 356.545,252.541 357.462 L 252.653 357.758 255.132 356.942 L 257.611 356.126 258.472 358.700 C 258.946 360.116,259.333 361.310,259.333 361.353 C 259.333 361.489,254.426 363.021,253.638 363.130 C 251.016 363.494,247.978 361.787,246.781 359.278 C 244.073 353.603,249.910 347.529,255.636 350.062 C 255.977 350.213,256.268 350.323,256.281 350.307 C 256.605 349.926,256.784 349.279,256.602 349.147 C 255.584 348.402,252.845 348.020,251.157 348.387 M158.340 352.028 C 157.598 355.637,155.369 367.066,155.401 367.101 C 155.581 367.296,160.418 368.125,161.444 368.136 C 169.958 368.232,172.284 355.443,164.260 352.658 C 163.750 352.482,158.860 351.444,158.536 351.444 C 158.494 351.444,158.406 351.707,158.340 352.028 M238.194 352.413 C 237.800 352.473,237.726 351.887,239.007 358.842 C 239.621 362.181,240.103 364.934,240.078 364.959 C 240.052 364.985,237.210 362.667,233.762 359.809 C 226.406 353.710,227.118 354.290,227.056 354.351 C 227.009 354.399,229.867 370.126,229.936 370.195 C 229.989 370.249,230.843 370.097,230.985 370.009 C 231.086 369.947,229.231 359.227,228.842 357.626 C 228.795 357.430,228.805 357.431,229.035 357.638 C 229.778 358.309,241.921 368.338,241.953 368.307 C 241.973 368.286,241.331 364.684,240.525 360.301 L 239.060 352.333 238.780 352.350 C 238.626 352.359,238.362 352.387,238.194 352.413 M161.398 353.271 C 164.211 353.842,164.983 354.177,166.113 355.321 C 170.196 359.452,167.143 367.036,161.444 366.920 C 160.084 366.893,156.823 366.234,156.853 365.993 C 156.882 365.752,159.346 353.188,159.395 353.028 C 159.448 352.855,159.206 352.826,161.398 353.271 M219.457 355.676 C 219.189 355.728,218.951 355.790,218.928 355.813 C 218.905 355.836,219.469 359.391,220.182 363.713 L 221.478 371.572 222.045 371.496 C 222.356 371.454,222.628 371.404,222.649 371.385 C 222.714 371.325,220.085 355.555,220.013 355.568 C 219.975 355.574,219.725 355.623,219.457 355.676 M184.278 356.554 C 184.175 357.302,183.913 357.219,187.388 357.543 C 190.289 357.813,190.444 357.839,190.445 358.053 C 190.446 358.177,190.143 361.471,189.772 365.373 C 189.402 369.276,189.114 372.481,189.133 372.497 C 189.151 372.513,189.423 372.558,189.735 372.598 L 190.304 372.670 190.365 372.252 C 190.398 372.022,190.717 368.721,191.073 364.917 L 191.720 358.000 191.999 358.000 C 192.152 358.000,193.550 358.124,195.105 358.275 C 196.660 358.426,197.941 358.538,197.951 358.525 C 197.961 358.511,198.003 358.240,198.044 357.922 L 198.117 357.345 197.753 357.285 C 197.553 357.253,194.689 356.976,191.389 356.670 C 188.089 356.363,185.157 356.084,184.873 356.048 L 184.357 355.982 184.278 356.554 M202.625 359.361 C 202.589 360.843,202.540 364.443,202.516 367.361 L 202.473 372.667 203.054 372.667 L 203.635 372.667 203.706 371.984 C 203.746 371.608,203.778 369.958,203.778 368.317 L 203.778 365.333 208.417 365.333 L 213.056 365.333 213.020 369.055 L 212.984 372.778 213.585 372.778 L 214.186 372.778 214.260 366.926 C 214.300 363.708,214.333 360.108,214.333 358.926 L 214.333 356.778 213.722 356.778 L 213.111 356.778 213.111 360.444 L 213.111 364.111 208.433 364.111 L 203.756 364.111 203.837 360.389 L 203.919 356.667 203.305 356.667 L 202.692 356.667 202.625 359.361 " stroke="none" fill="#000000" fill-rule="evenodd"></path></g></svg>