<?xml version="1.0" encoding="UTF-8"?> <svg xmlns="http://www.w3.org/2000/svg" xmlns:xlink="http://www.w3.org/1999/xlink" width="2498" height="1715" xml:space="preserve" overflow="hidden"><defs><clipPath id="clip0"><rect x="1086" y="320" width="2498" height="1715"></rect></clipPath><clipPath id="clip1"><rect x="1089" y="1061" width="973" height="972"></rect></clipPath><clipPath id="clip2"><rect x="1089" y="1061" width="973" height="972"></rect></clipPath><clipPath id="clip3"><rect x="1089" y="1061" width="973" height="972"></rect></clipPath><clipPath id="clip4"><rect x="1569" y="324" width="1475" height="1475"></rect></clipPath><clipPath id="clip5"><rect x="1569" y="324" width="1475" height="1475"></rect></clipPath><clipPath id="clip6"><rect x="1569" y="324" width="1475" height="1475"></rect></clipPath><clipPath id="clip7"><rect x="2608" y="1061" width="973" height="972"></rect></clipPath><clipPath id="clip8"><rect x="2608" y="1061" width="973" height="972"></rect></clipPath><clipPath id="clip9"><rect x="2608" y="1061" width="973" height="972"></rect></clipPath><clipPath id="clip10"><rect x="2147" y="764" width="897" height="1035"></rect></clipPath><clipPath id="clip11"><rect x="2147" y="764" width="897" height="1035"></rect></clipPath><clipPath id="clip12"><rect x="1569" y="324" width="1475" height="1475"></rect></clipPath></defs><g clip-path="url(#clip0)" transform="translate(-1086 -320)"><g clip-path="url(#clip1)"><g clip-path="url(#clip2)"><g clip-path="url(#clip3)"><path d="M647.333 303.438C647.333 392.816 574.878 465.271 485.5 465.271 396.122 465.271 323.667 392.816 323.667 303.438 323.667 214.059 396.122 141.604 485.5 141.604 574.878 141.604 647.333 214.059 647.333 303.438Z" fill="#A0A0A0" fill-rule="nonzero" fill-opacity="1" transform="matrix(1.00103 0 0 1 1089 1062)"></path><path d="M809.167 829.396 809.167 667.563C809.167 643.288 797.029 619.013 776.8 602.829 732.296 566.417 675.654 542.142 619.013 525.958 578.554 513.821 534.05 505.729 485.5 505.729 440.996 505.729 396.492 513.821 351.988 525.958 295.346 542.142 238.704 570.463 194.2 602.829 173.971 619.013 161.833 643.288 161.833 667.563L161.833 829.396 809.167 829.396Z" fill="#A0A0A0" fill-rule="nonzero" fill-opacity="1" transform="matrix(1.00103 0 0 1 1089 1062)"></path></g></g></g><g clip-path="url(#clip4)"><g clip-path="url(#clip5)"><g clip-path="url(#clip6)"><path d="M2214.88 739.562 2460.54 739.562 2460.54 693.5C2460.54 659.721 2432.9 632.083 2399.12 632.083L1754.25 632.083C1720.47 632.083 1692.83 659.721 1692.83 693.5L1692.83 1108.06C1692.83 1141.84 1720.47 1169.48 1754.25 1169.48L1846.37 1169.48 1846.37 1323.02 1999.92 1169.48 2092.04 1169.48 2092.04 862.396C2092.04 794.837 2147.32 739.562 2214.88 739.562Z" fill="#D9D9D9" fill-rule="nonzero" fill-opacity="1"></path><path d="M2859.75 800.979 2214.88 800.979C2181.1 800.979 2153.46 828.617 2153.46 862.396L2153.46 1276.96C2153.46 1310.74 2181.1 1338.37 2214.88 1338.37L2614.08 1338.37 2767.62 1491.92 2767.62 1338.37 2859.75 1338.37C2893.53 1338.37 2921.17 1310.74 2921.17 1276.96L2921.17 862.396C2921.17 828.617 2893.53 800.979 2859.75 800.979Z" fill="#D9D9D9" fill-rule="nonzero" fill-opacity="1"></path></g></g></g><g clip-path="url(#clip7)"><g clip-path="url(#clip8)"><g clip-path="url(#clip9)"><path d="M648 303.75C648 393.22 575.47 465.75 486 465.75 396.53 465.75 324 393.22 324 303.75 324 214.28 396.53 141.75 486 141.75 575.47 141.75 648 214.28 648 303.75Z" fill="#3FBB93" fill-rule="nonzero" fill-opacity="1" transform="matrix(1 0 0 1 2608 1061)"></path><path d="M810 830.25 810 668.25C810 643.95 797.85 619.65 777.6 603.45 733.05 567 676.35 542.7 619.65 526.5 579.15 514.35 534.6 506.25 486 506.25 441.45 506.25 396.9 514.35 352.35 526.5 295.65 542.7 238.95 571.05 194.4 603.45 174.15 619.65 162 643.95 162 668.25L162 830.25 810 830.25Z" fill="#3FBB93" fill-rule="nonzero" fill-opacity="1" transform="matrix(1 0 0 1 2608 1061)"></path></g></g></g><g clip-path="url(#clip10)"><g clip-path="url(#clip11)"><g clip-path="url(#clip12)"><path d="M644.915 414.588 890.597 414.588 890.597 368.523C890.597 334.742 862.958 307.103 829.177 307.103L184.262 307.103C150.48 307.103 122.841 334.742 122.841 368.523L122.841 783.112C122.841 816.893 150.48 844.532 184.262 844.532L276.392 844.532 276.392 998.083 429.944 844.532 522.074 844.532 522.074 537.429C522.074 469.867 577.353 414.588 644.915 414.588Z" fill="#D0FBF6" fill-rule="nonzero" fill-opacity="1" transform="matrix(1 0 0 1.00044 1569.91 324.263)"></path><path d="M1289.83 476.009 644.915 476.009C611.134 476.009 583.495 503.648 583.495 537.429L583.495 952.018C583.495 985.799 611.134 1013.44 644.915 1013.44L1044.15 1013.44 1197.7 1166.99 1197.7 1013.44 1289.83 1013.44C1323.61 1013.44 1351.25 985.799 1351.25 952.018L1351.25 537.429C1351.25 503.648 1323.61 476.009 1289.83 476.009Z" fill="#D0FBF6" fill-rule="nonzero" fill-opacity="1" transform="matrix(1 0 0 1.00044 1569.91 324.263)"></path></g></g></g></g></svg> 